M48
; DRILL file {KiCad 8.0.2} date 2024-10-23T21:54:31-0500
; FORMAT={-:-/ absolute / inch / decimal}
; #@! TF.CreationDate,2024-10-23T21:54:31-05:00
; #@! TF.GenerationSoftware,Kicad,Pcbnew,8.0.2
; #@! TF.FileFunction,Plated,1,4,PTH
FMAT,2
INCH
; #@! TA.AperFunction,Plated,PTH,ViaDrill
T1C0.0100
; #@! TA.AperFunction,Plated,PTH,ComponentDrill
T2C0.0256
; #@! TA.AperFunction,Plated,PTH,ComponentDrill
T3C0.0354
; #@! TA.AperFunction,Plated,PTH,ComponentDrill
T4C0.0402
%
G90
G05
T1
X3.3558Y-3.3497
X3.3558Y-3.4497
X3.3558Y-3.6497
X3.3976Y-3.6231
X3.4015Y-3.4145
X3.6023Y-3.3909
X3.6062Y-3.5956
X3.6535Y-3.1743
X3.6928Y-4.0562
X3.7165Y-3.1743
X3.744Y-4.2098
X3.7758Y-4.1697
X3.8058Y-3.9547
X3.807Y-3.757
X3.8149Y-3.3909
X3.9133Y-3.1743
X3.9684Y-3.8476
X4.0078Y-3.3909
X4.0078Y-3.7728
X4.0258Y-4.0597
X4.0408Y-4.0347
X4.0508Y-3.1047
X4.0508Y-4.0747
X4.0905Y-4.009
X4.118Y-3.1822
X4.1613Y-3.7924
X4.2086Y-3.3948
X4.3228Y-3.1822
X4.368Y-4.1665
X4.4448Y-3.5956
X4.4487Y-3.3909
X4.4881Y-3.8318
X4.494Y-4.2019
T2
X4.4608Y-3.9397
X4.4608Y-3.9897
X4.4608Y-4.0397
X4.4608Y-4.0897
X4.4608Y-4.1397
T3
X3.7758Y-4.4147
X3.7758Y-4.5919
X4.0317Y-4.4147
X4.0317Y-4.5919
T4
X3.6613Y-4.9263
X4.1613Y-4.9263
M30
