G04 #@! TF.GenerationSoftware,KiCad,Pcbnew,8.0.2*
G04 #@! TF.CreationDate,2024-10-23T21:54:28-05:00*
G04 #@! TF.ProjectId,SAMC21_breakout,53414d43-3231-45f6-9272-65616b6f7574,rev?*
G04 #@! TF.SameCoordinates,Original*
G04 #@! TF.FileFunction,Copper,L1,Top*
G04 #@! TF.FilePolarity,Positive*
%FSLAX46Y46*%
G04 Gerber Fmt 4.6, Leading zero omitted, Abs format (unit mm)*
G04 Created by KiCad (PCBNEW 8.0.2) date 2024-10-23 21:54:28*
%MOMM*%
%LPD*%
G01*
G04 APERTURE LIST*
G04 Aperture macros list*
%AMRoundRect*
0 Rectangle with rounded corners*
0 $1 Rounding radius*
0 $2 $3 $4 $5 $6 $7 $8 $9 X,Y pos of 4 corners*
0 Add a 4 corners polygon primitive as box body*
4,1,4,$2,$3,$4,$5,$6,$7,$8,$9,$2,$3,0*
0 Add four circle primitives for the rounded corners*
1,1,$1+$1,$2,$3*
1,1,$1+$1,$4,$5*
1,1,$1+$1,$6,$7*
1,1,$1+$1,$8,$9*
0 Add four rect primitives between the rounded corners*
20,1,$1+$1,$2,$3,$4,$5,0*
20,1,$1+$1,$4,$5,$6,$7,0*
20,1,$1+$1,$6,$7,$8,$9,0*
20,1,$1+$1,$8,$9,$2,$3,0*%
G04 Aperture macros list end*
G04 #@! TA.AperFunction,SMDPad,CuDef*
%ADD10RoundRect,0.218750X0.218750X0.256250X-0.218750X0.256250X-0.218750X-0.256250X0.218750X-0.256250X0*%
G04 #@! TD*
G04 #@! TA.AperFunction,SMDPad,CuDef*
%ADD11RoundRect,0.218750X-0.218750X-0.256250X0.218750X-0.256250X0.218750X0.256250X-0.218750X0.256250X0*%
G04 #@! TD*
G04 #@! TA.AperFunction,SMDPad,CuDef*
%ADD12RoundRect,0.218750X0.256250X-0.218750X0.256250X0.218750X-0.256250X0.218750X-0.256250X-0.218750X0*%
G04 #@! TD*
G04 #@! TA.AperFunction,SMDPad,CuDef*
%ADD13O,0.250000X0.700000*%
G04 #@! TD*
G04 #@! TA.AperFunction,SMDPad,CuDef*
%ADD14O,0.700000X0.250000*%
G04 #@! TD*
G04 #@! TA.AperFunction,SMDPad,CuDef*
%ADD15R,2.700000X2.700000*%
G04 #@! TD*
G04 #@! TA.AperFunction,ComponentPad*
%ADD16C,1.800000*%
G04 #@! TD*
G04 #@! TA.AperFunction,SMDPad,CuDef*
%ADD17R,0.700000X1.500000*%
G04 #@! TD*
G04 #@! TA.AperFunction,SMDPad,CuDef*
%ADD18R,1.000000X0.800000*%
G04 #@! TD*
G04 #@! TA.AperFunction,ComponentPad*
%ADD19R,1.000000X1.000000*%
G04 #@! TD*
G04 #@! TA.AperFunction,ComponentPad*
%ADD20O,1.000000X1.000000*%
G04 #@! TD*
G04 #@! TA.AperFunction,ComponentPad*
%ADD21C,1.530000*%
G04 #@! TD*
G04 #@! TA.AperFunction,ViaPad*
%ADD22C,0.508000*%
G04 #@! TD*
G04 #@! TA.AperFunction,Conductor*
%ADD23C,0.152400*%
G04 #@! TD*
G04 #@! TA.AperFunction,Conductor*
%ADD24C,0.203200*%
G04 #@! TD*
G04 APERTURE END LIST*
D10*
X99487500Y-98418000D03*
X97912500Y-98418000D03*
D11*
X85339500Y-83813000D03*
X86914500Y-83813000D03*
X85339500Y-88893000D03*
X86914500Y-88893000D03*
D12*
X92858000Y-84600500D03*
X92858000Y-83025500D03*
D13*
X99950000Y-101879000D03*
X99450000Y-101879000D03*
X98950000Y-101879000D03*
X98450000Y-101879000D03*
X97950000Y-101879000D03*
X97450000Y-101879000D03*
D14*
X96700000Y-102629000D03*
X96700000Y-103129000D03*
X96700000Y-103629000D03*
X96700000Y-104129000D03*
X96700000Y-104629000D03*
X96700000Y-105129000D03*
D13*
X97450000Y-105879000D03*
X97950000Y-105879000D03*
X98450000Y-105879000D03*
X98950000Y-105879000D03*
X99450000Y-105879000D03*
X99950000Y-105879000D03*
D14*
X100700000Y-105129000D03*
X100700000Y-104629000D03*
X100700000Y-104129000D03*
X100700000Y-103629000D03*
X100700000Y-103129000D03*
X100700000Y-102629000D03*
D15*
X98700000Y-103879000D03*
D16*
X95906000Y-112134000D03*
X102406000Y-112134000D03*
X95906000Y-116634000D03*
X102406000Y-116634000D03*
D12*
X113178000Y-94760500D03*
X113178000Y-93185500D03*
X97938000Y-89680500D03*
X97938000Y-88105500D03*
D10*
X99487500Y-99942000D03*
X97912500Y-99942000D03*
D17*
X101331000Y-77562000D03*
X98331000Y-77562000D03*
X96831000Y-77562000D03*
D18*
X102781000Y-76712000D03*
X102781000Y-74912000D03*
X95381000Y-76712000D03*
X95381000Y-74912000D03*
D11*
X85339500Y-93973000D03*
X86914500Y-93973000D03*
D12*
X88413000Y-84600500D03*
X88413000Y-83025500D03*
X88413000Y-89680500D03*
X88413000Y-88105500D03*
X88413000Y-94760500D03*
X88413000Y-93185500D03*
X90318000Y-84600500D03*
X90318000Y-83025500D03*
X90318000Y-89680500D03*
X90318000Y-88105500D03*
X90318000Y-94760500D03*
X90318000Y-93185500D03*
X95398000Y-84600500D03*
X95398000Y-83025500D03*
X95398000Y-89680500D03*
X95398000Y-88105500D03*
X95398000Y-94760500D03*
X95398000Y-93185500D03*
X100478000Y-84600500D03*
X100478000Y-83025500D03*
X100478000Y-89680500D03*
X100478000Y-88105500D03*
X100478000Y-94760500D03*
X100478000Y-93185500D03*
X105558000Y-84600500D03*
X105558000Y-83025500D03*
X105558000Y-89680500D03*
X105558000Y-88105500D03*
X105558000Y-94760500D03*
X105558000Y-93185500D03*
X110638000Y-84600500D03*
X110638000Y-83025500D03*
X110638000Y-89680500D03*
X110638000Y-88105500D03*
X110638000Y-94760500D03*
X110638000Y-93185500D03*
D19*
X113305000Y-100069000D03*
D20*
X113305000Y-101339000D03*
X113305000Y-102609000D03*
X113305000Y-103879000D03*
X113305000Y-105149000D03*
D12*
X92858000Y-89680500D03*
X92858000Y-88105500D03*
X92858000Y-94760500D03*
X92858000Y-93185500D03*
X97938000Y-84600500D03*
X97938000Y-83025500D03*
X97938000Y-94760500D03*
X97938000Y-93185500D03*
X103018000Y-84600500D03*
X103018000Y-83025500D03*
X103018000Y-89680500D03*
X103018000Y-88105500D03*
X103018000Y-94760500D03*
X103018000Y-93185500D03*
X108098000Y-84600500D03*
X108098000Y-83025500D03*
X108098000Y-89680500D03*
X108098000Y-88105500D03*
X108098000Y-94760500D03*
X108098000Y-93185500D03*
X113178000Y-84600500D03*
X113178000Y-83025500D03*
X113178000Y-89680500D03*
X113178000Y-88105500D03*
D11*
X101722500Y-109086000D03*
X103297500Y-109086000D03*
D21*
X92998000Y-125128000D03*
X105698000Y-125128000D03*
D22*
X110948000Y-105828000D03*
X114148000Y-106728000D03*
X113998000Y-97328000D03*
X85238000Y-92703000D03*
X85238000Y-87623000D03*
X85238000Y-85083000D03*
X103898000Y-101828000D03*
X96668000Y-100450000D03*
X86398000Y-86728000D03*
X91498000Y-86128000D03*
X109798000Y-80828000D03*
X92798000Y-80628000D03*
X95098000Y-106928000D03*
X99398000Y-80628000D03*
X106898000Y-86228000D03*
X91598000Y-91328000D03*
X104598000Y-80828000D03*
X100798000Y-97728000D03*
X94398000Y-80628000D03*
X93798000Y-103028000D03*
X96698000Y-95428000D03*
X101798000Y-86128000D03*
X105698000Y-96328000D03*
X96898000Y-86128000D03*
X86298000Y-92028000D03*
X101798000Y-95828000D03*
X112898000Y-91328000D03*
X112998000Y-86128000D03*
X102637000Y-102482000D03*
X102256000Y-103117000D03*
X102891000Y-103498000D03*
X95906000Y-105911000D03*
X102891000Y-78860000D03*
D23*
X98827000Y-89655000D02*
X98827000Y-84575000D01*
X97938000Y-94760500D02*
X98513000Y-94760500D01*
X93747000Y-84575000D02*
X93747000Y-80511000D01*
X111908000Y-104514000D02*
X112543000Y-105149000D01*
D24*
X98827000Y-80003000D02*
X103907000Y-80003000D01*
D23*
X103018000Y-94760500D02*
X103754500Y-94760500D01*
X99774390Y-94356446D02*
X100157836Y-93973000D01*
X98801500Y-89680500D02*
X98827000Y-89655000D01*
X108987000Y-89655000D02*
X108987000Y-84575000D01*
X93433000Y-94760500D02*
X93747000Y-94446500D01*
X103907000Y-89655000D02*
X103907000Y-84575000D01*
D24*
X113305000Y-80003000D02*
X114067000Y-80765000D01*
D23*
X108961500Y-89680500D02*
X108987000Y-89655000D01*
D24*
X93747000Y-80511000D02*
X93747000Y-80003000D01*
X98331000Y-79991000D02*
X98319000Y-80003000D01*
X86254000Y-80003000D02*
X85339500Y-80917500D01*
D23*
X108987000Y-84575000D02*
X108987000Y-80638000D01*
D24*
X98950000Y-101325800D02*
X99487500Y-100788300D01*
X85238000Y-92703000D02*
X85238000Y-93871500D01*
D23*
X112416000Y-109086000D02*
X113305000Y-108197000D01*
X108098000Y-94760500D02*
X108673000Y-94760500D01*
X98827000Y-94446500D02*
X98827000Y-89655000D01*
X101621000Y-94608000D02*
X101773500Y-94760500D01*
D24*
X85238000Y-93871500D02*
X85339500Y-93973000D01*
D23*
X92858000Y-84600500D02*
X93721500Y-84600500D01*
X98827000Y-84575000D02*
X98827000Y-80511000D01*
X103881500Y-84600500D02*
X103907000Y-84575000D01*
X97938000Y-89680500D02*
X98801500Y-89680500D01*
X98513000Y-94760500D02*
X98827000Y-94446500D01*
D24*
X98827000Y-80511000D02*
X98827000Y-80130000D01*
D23*
X99487500Y-97249500D02*
X99774390Y-96962610D01*
D24*
X85238000Y-88791500D02*
X85339500Y-88893000D01*
D23*
X113305000Y-108197000D02*
X113305000Y-105149000D01*
X103907000Y-94608000D02*
X103907000Y-89655000D01*
X103754500Y-94760500D02*
X103907000Y-94608000D01*
X99487500Y-98418000D02*
X99487500Y-97249500D01*
X114067000Y-89655000D02*
X114067000Y-84575000D01*
D24*
X98319000Y-80003000D02*
X98827000Y-80003000D01*
D23*
X113178000Y-94760500D02*
X113178000Y-96640000D01*
D24*
X98827000Y-80130000D02*
X98827000Y-80003000D01*
D23*
X103881500Y-89680500D02*
X103907000Y-89655000D01*
X92858000Y-89680500D02*
X93721500Y-89680500D01*
D24*
X99487500Y-99942000D02*
X99487500Y-98418000D01*
D23*
X103018000Y-89680500D02*
X103881500Y-89680500D01*
D24*
X93747000Y-80003000D02*
X86254000Y-80003000D01*
X85339500Y-84981500D02*
X85238000Y-85083000D01*
D23*
X97938000Y-84600500D02*
X98801500Y-84600500D01*
X113753000Y-94760500D02*
X114067000Y-94446500D01*
X93747000Y-89655000D02*
X93747000Y-84575000D01*
X108987000Y-94446500D02*
X108987000Y-89655000D01*
X98801500Y-84600500D02*
X98827000Y-84575000D01*
X100157836Y-93973000D02*
X101367000Y-93973000D01*
X103018000Y-84600500D02*
X103881500Y-84600500D01*
X114041500Y-84600500D02*
X114067000Y-84575000D01*
D24*
X85339500Y-80917500D02*
X85339500Y-83813000D01*
D23*
X101773500Y-94760500D02*
X103018000Y-94760500D01*
D24*
X98331000Y-77562000D02*
X98331000Y-79991000D01*
D23*
X92858000Y-94760500D02*
X93433000Y-94760500D01*
D24*
X85339500Y-83813000D02*
X85339500Y-84981500D01*
D23*
X93747000Y-94446500D02*
X93747000Y-89655000D01*
X113178000Y-89680500D02*
X114041500Y-89680500D01*
X108098000Y-89680500D02*
X108961500Y-89680500D01*
D24*
X108987000Y-80638000D02*
X108987000Y-80003000D01*
D23*
X108961500Y-84600500D02*
X108987000Y-84575000D01*
X113178000Y-96640000D02*
X111908000Y-97910000D01*
X93721500Y-89680500D02*
X93747000Y-89655000D01*
X114067000Y-84575000D02*
X114067000Y-80765000D01*
X114041500Y-89680500D02*
X114067000Y-89655000D01*
X101621000Y-94227000D02*
X101621000Y-94608000D01*
X112543000Y-105149000D02*
X113305000Y-105149000D01*
D24*
X99487500Y-100788300D02*
X99487500Y-99942000D01*
X103907000Y-80511000D02*
X103907000Y-80003000D01*
D23*
X108673000Y-94760500D02*
X108987000Y-94446500D01*
X103907000Y-84575000D02*
X103907000Y-80511000D01*
D24*
X103907000Y-80003000D02*
X108987000Y-80003000D01*
D23*
X114067000Y-94446500D02*
X114067000Y-89655000D01*
X113178000Y-94760500D02*
X113753000Y-94760500D01*
X111908000Y-97910000D02*
X111908000Y-104514000D01*
D24*
X85238000Y-87623000D02*
X85238000Y-88791500D01*
D23*
X99774390Y-96962610D02*
X99774390Y-94356446D01*
X108098000Y-84600500D02*
X108961500Y-84600500D01*
D24*
X98950000Y-101879000D02*
X98950000Y-101325800D01*
X108987000Y-80003000D02*
X113305000Y-80003000D01*
D23*
X113178000Y-84600500D02*
X114041500Y-84600500D01*
D24*
X93747000Y-80003000D02*
X98319000Y-80003000D01*
D23*
X101367000Y-93973000D02*
X101621000Y-94227000D01*
X103297500Y-109086000D02*
X112416000Y-109086000D01*
X93721500Y-84600500D02*
X93747000Y-84575000D01*
D24*
X98450000Y-101325800D02*
X97912500Y-100788300D01*
X97912500Y-100788300D02*
X97912500Y-99942000D01*
X97912500Y-98418000D02*
X97912500Y-99942000D01*
D23*
X98450000Y-102740000D02*
X98700000Y-102990000D01*
D24*
X98450000Y-101879000D02*
X98450000Y-101325800D01*
D23*
X98700000Y-102990000D02*
X98700000Y-103879000D01*
X98450000Y-101879000D02*
X98450000Y-102740000D01*
D24*
X97049000Y-98418000D02*
X96668000Y-98799000D01*
X96668000Y-98799000D02*
X96668000Y-100450000D01*
X97912500Y-98418000D02*
X97049000Y-98418000D01*
D23*
X86914500Y-83238000D02*
X87127000Y-83025500D01*
X86914500Y-83813000D02*
X86914500Y-83238000D01*
X87838000Y-83025500D02*
X88413000Y-83025500D01*
X87127000Y-83025500D02*
X87838000Y-83025500D01*
X87127000Y-88105500D02*
X87838000Y-88105500D01*
X87838000Y-88105500D02*
X88413000Y-88105500D01*
X86914500Y-88893000D02*
X86914500Y-88318000D01*
X86914500Y-88318000D02*
X87127000Y-88105500D01*
X87838000Y-93185500D02*
X88413000Y-93185500D01*
X87127000Y-93185500D02*
X87838000Y-93185500D01*
X86914500Y-93398000D02*
X87127000Y-93185500D01*
X86914500Y-93973000D02*
X86914500Y-93398000D01*
X92858000Y-83025500D02*
X90318000Y-83025500D01*
X92858000Y-88105500D02*
X90318000Y-88105500D01*
X92858000Y-93185500D02*
X90318000Y-93185500D01*
X95398000Y-83025500D02*
X97938000Y-83025500D01*
X95973000Y-88105500D02*
X97938000Y-88105500D01*
X95398000Y-88105500D02*
X95973000Y-88105500D01*
X95398000Y-93185500D02*
X97938000Y-93185500D01*
X101053000Y-83025500D02*
X103018000Y-83025500D01*
X100478000Y-83025500D02*
X101053000Y-83025500D01*
X100478000Y-88105500D02*
X101053000Y-88105500D01*
X101053000Y-88105500D02*
X103018000Y-88105500D01*
X100478000Y-93185500D02*
X103018000Y-93185500D01*
X106133000Y-83025500D02*
X108098000Y-83025500D01*
X105558000Y-83025500D02*
X106133000Y-83025500D01*
X108098000Y-88105500D02*
X107523000Y-88105500D01*
X107523000Y-88105500D02*
X105558000Y-88105500D01*
X105558000Y-93185500D02*
X106133000Y-93185500D01*
X106133000Y-93185500D02*
X108098000Y-93185500D01*
X111213000Y-83025500D02*
X113178000Y-83025500D01*
X110638000Y-83025500D02*
X111213000Y-83025500D01*
X113178000Y-88105500D02*
X110638000Y-88105500D01*
X110638000Y-93185500D02*
X113178000Y-93185500D01*
X88413000Y-85138000D02*
X87833000Y-85718000D01*
X87833000Y-85718000D02*
X84730000Y-85718000D01*
X83968000Y-103117000D02*
X89556000Y-108705000D01*
X84730000Y-85718000D02*
X83968000Y-86480000D01*
X98950000Y-107439000D02*
X98950000Y-105879000D01*
X89556000Y-108705000D02*
X97684000Y-108705000D01*
X83968000Y-86480000D02*
X83968000Y-103117000D01*
X97684000Y-108705000D02*
X98950000Y-107439000D01*
X88413000Y-84600500D02*
X88413000Y-85138000D01*
X89810000Y-108197000D02*
X97430000Y-108197000D01*
X88413000Y-90218000D02*
X87960000Y-90671000D01*
X97430000Y-108197000D02*
X98450000Y-107177000D01*
X98450000Y-107177000D02*
X98450000Y-105879000D01*
X87960000Y-90671000D02*
X84857000Y-90671000D01*
X88413000Y-89680500D02*
X88413000Y-90218000D01*
X84476000Y-102863000D02*
X89810000Y-108197000D01*
X84476000Y-91052000D02*
X84476000Y-102863000D01*
X84857000Y-90671000D02*
X84476000Y-91052000D01*
X90064000Y-107689000D02*
X97176000Y-107689000D01*
X85365000Y-96132000D02*
X84984000Y-96513000D01*
X84984000Y-96513000D02*
X84984000Y-102609000D01*
X88413000Y-94760500D02*
X88413000Y-95751000D01*
X97176000Y-107689000D02*
X97950000Y-106915000D01*
X88032000Y-96132000D02*
X85365000Y-96132000D01*
X84984000Y-102609000D02*
X90064000Y-107689000D01*
X88413000Y-95751000D02*
X88032000Y-96132000D01*
X97950000Y-106915000D02*
X97950000Y-105879000D01*
X90318000Y-85138000D02*
X89302000Y-86154000D01*
X89302000Y-86154000D02*
X89302000Y-101339000D01*
X90318000Y-84600500D02*
X90318000Y-85138000D01*
X89302000Y-101339000D02*
X93092000Y-105129000D01*
X96197600Y-105129000D02*
X96700000Y-105129000D01*
X93092000Y-105129000D02*
X96197600Y-105129000D01*
X89614390Y-100889390D02*
X93354000Y-104629000D01*
X93354000Y-104629000D02*
X96700000Y-104629000D01*
X89614390Y-90384110D02*
X89614390Y-100889390D01*
X90318000Y-89680500D02*
X89614390Y-90384110D01*
X90318000Y-100831000D02*
X93616000Y-104129000D01*
X90318000Y-94760500D02*
X90318000Y-100831000D01*
X93616000Y-104129000D02*
X96197600Y-104129000D01*
X96197600Y-104129000D02*
X96700000Y-104129000D01*
X95529000Y-103629000D02*
X96700000Y-103629000D01*
X94128000Y-96386000D02*
X94128000Y-102228000D01*
X95398000Y-84600500D02*
X95398000Y-85138000D01*
X94128000Y-86408000D02*
X94128000Y-96386000D01*
X95398000Y-85138000D02*
X94128000Y-86408000D01*
X94128000Y-102228000D02*
X95529000Y-103629000D01*
X94128000Y-96386000D02*
X94128000Y-96513000D01*
X95791000Y-103129000D02*
X96700000Y-103129000D01*
X94636000Y-90980000D02*
X94636000Y-101974000D01*
X95398000Y-90218000D02*
X94636000Y-90980000D01*
X95398000Y-89680500D02*
X95398000Y-90218000D01*
X94636000Y-101974000D02*
X95791000Y-103129000D01*
X95398000Y-95751000D02*
X95398000Y-94760500D01*
X95398000Y-94760500D02*
X95144000Y-95014500D01*
X95144000Y-101720000D02*
X95144000Y-96005000D01*
X96053000Y-102629000D02*
X96700000Y-102629000D01*
X95144000Y-101720000D02*
X96053000Y-102629000D01*
X95144000Y-96005000D02*
X95398000Y-95751000D01*
X100478000Y-84600500D02*
X100478000Y-85138000D01*
X95652000Y-101339000D02*
X96192000Y-101879000D01*
X96287000Y-96259000D02*
X95652000Y-96894000D01*
X95652000Y-96894000D02*
X95652000Y-101339000D01*
X99131810Y-86484190D02*
X99131810Y-96081190D01*
X100478000Y-85138000D02*
X99131810Y-86484190D01*
X99131810Y-96081190D02*
X98954000Y-96259000D01*
X96192000Y-101879000D02*
X97450000Y-101879000D01*
X98954000Y-96259000D02*
X96287000Y-96259000D01*
X97950000Y-101376600D02*
X97950000Y-101879000D01*
X99208000Y-96767000D02*
X96541000Y-96767000D01*
X96160000Y-100831000D02*
X96414000Y-101085000D01*
X99462000Y-90696500D02*
X99462000Y-96513000D01*
X96160000Y-97148000D02*
X96160000Y-100831000D01*
X99462000Y-96513000D02*
X99208000Y-96767000D01*
X100478000Y-89680500D02*
X99462000Y-90696500D01*
X96414000Y-101085000D02*
X97658400Y-101085000D01*
X97658400Y-101085000D02*
X97950000Y-101376600D01*
X96541000Y-96767000D02*
X96160000Y-97148000D01*
X99614600Y-101212000D02*
X102891000Y-101212000D01*
X100478000Y-95298000D02*
X100478000Y-94760500D01*
X100859000Y-96767000D02*
X100478000Y-96386000D01*
X99450000Y-101879000D02*
X99450000Y-101376600D01*
X99450000Y-101376600D02*
X99614600Y-101212000D01*
X102891000Y-101212000D02*
X103272000Y-100831000D01*
X102764000Y-96767000D02*
X100859000Y-96767000D01*
X103272000Y-100831000D02*
X103272000Y-97275000D01*
X103272000Y-97275000D02*
X102764000Y-96767000D01*
X100478000Y-96386000D02*
X100478000Y-95298000D01*
X105558000Y-85138000D02*
X105558000Y-84600500D01*
D24*
X99982000Y-101847000D02*
X99950000Y-101879000D01*
D23*
X102986000Y-101879000D02*
X103780000Y-101085000D01*
X104288000Y-95497000D02*
X104288000Y-86408000D01*
X104288000Y-86408000D02*
X105558000Y-85138000D01*
X99950000Y-101879000D02*
X102986000Y-101879000D01*
X103780000Y-101085000D02*
X103780000Y-96005000D01*
X103780000Y-96005000D02*
X104288000Y-95497000D01*
X103911000Y-104129000D02*
X100700000Y-104129000D01*
X104669000Y-103371000D02*
X103911000Y-104129000D01*
X105558000Y-89680500D02*
X105558000Y-90218000D01*
X105558000Y-90218000D02*
X104669000Y-91107000D01*
X104669000Y-91107000D02*
X104669000Y-103371000D01*
X104173000Y-104629000D02*
X105177000Y-103625000D01*
X105558000Y-95298000D02*
X105558000Y-94760500D01*
X105177000Y-95679000D02*
X105558000Y-95298000D01*
X105177000Y-103625000D02*
X105177000Y-95679000D01*
X100700000Y-104629000D02*
X104173000Y-104629000D01*
X110638000Y-84600500D02*
X110638000Y-85138000D01*
X109368000Y-104006000D02*
X108245000Y-105129000D01*
X108245000Y-105129000D02*
X100700000Y-105129000D01*
X109368000Y-86408000D02*
X109368000Y-104006000D01*
X110638000Y-85138000D02*
X109368000Y-86408000D01*
X109876000Y-104260000D02*
X108257000Y-105879000D01*
X110638000Y-89680500D02*
X110638000Y-90218000D01*
X100227400Y-105879000D02*
X99950000Y-105879000D01*
X110638000Y-90218000D02*
X109876000Y-90980000D01*
X109876000Y-90980000D02*
X109876000Y-104260000D01*
X108257000Y-105879000D02*
X100227400Y-105879000D01*
X108225000Y-106673000D02*
X110384000Y-104514000D01*
X110638000Y-95624000D02*
X110638000Y-94760500D01*
X99450000Y-106407000D02*
X99716000Y-106673000D01*
X99450000Y-105879000D02*
X99450000Y-106407000D01*
X110384000Y-104514000D02*
X110384000Y-95878000D01*
X110384000Y-95878000D02*
X110638000Y-95624000D01*
X99716000Y-106673000D02*
X108225000Y-106673000D01*
X102490000Y-102629000D02*
X102637000Y-102482000D01*
X100700000Y-102629000D02*
X102490000Y-102629000D01*
X100700000Y-103129000D02*
X102244000Y-103129000D01*
X102244000Y-103129000D02*
X102256000Y-103117000D01*
X102633000Y-103629000D02*
X100700000Y-103629000D01*
X102891000Y-103498000D02*
X102633000Y-103629000D01*
X95938000Y-105879000D02*
X95906000Y-105911000D01*
D24*
X95906000Y-112134000D02*
X95906000Y-111118000D01*
X100224000Y-109086000D02*
X101722500Y-109086000D01*
X96668000Y-110356000D02*
X98954000Y-110356000D01*
D23*
X97450000Y-105879000D02*
X95938000Y-105879000D01*
D24*
X95906000Y-111118000D02*
X96668000Y-110356000D01*
X98954000Y-110356000D02*
X100224000Y-109086000D01*
X101331000Y-78515200D02*
X101331000Y-77562000D01*
X101675800Y-78860000D02*
X101331000Y-78515200D01*
X102891000Y-78860000D02*
X101675800Y-78860000D01*
G04 #@! TA.AperFunction,Conductor*
G36*
X88974458Y-95380533D02*
G01*
X89015365Y-95438560D01*
X89022100Y-95479204D01*
X89022100Y-101375853D01*
X89041174Y-101447036D01*
X89041175Y-101447038D01*
X89078021Y-101510858D01*
X89078029Y-101510868D01*
X92920130Y-105352970D01*
X92920135Y-105352974D01*
X92920137Y-105352976D01*
X92920138Y-105352977D01*
X92920140Y-105352978D01*
X92983958Y-105389823D01*
X92983959Y-105389823D01*
X92983962Y-105389825D01*
X92992173Y-105392025D01*
X93055150Y-105408900D01*
X95459546Y-105408900D01*
X95527667Y-105428902D01*
X95574160Y-105482558D01*
X95584264Y-105552832D01*
X95554770Y-105617412D01*
X95554770Y-105617413D01*
X95516999Y-105661002D01*
X95462324Y-105780724D01*
X95462322Y-105780731D01*
X95443593Y-105910996D01*
X95443593Y-105911003D01*
X95462322Y-106041268D01*
X95462324Y-106041275D01*
X95516998Y-106160996D01*
X95603188Y-106260464D01*
X95713909Y-106331620D01*
X95840193Y-106368700D01*
X95971807Y-106368700D01*
X96098091Y-106331620D01*
X96208812Y-106260464D01*
X96259136Y-106202386D01*
X96318862Y-106164004D01*
X96354360Y-106158900D01*
X97029699Y-106158900D01*
X97097820Y-106178902D01*
X97137628Y-106224843D01*
X97139572Y-106223722D01*
X97186970Y-106305819D01*
X97186980Y-106305832D01*
X97248167Y-106367019D01*
X97248171Y-106367022D01*
X97248174Y-106367025D01*
X97248177Y-106367026D01*
X97248180Y-106367029D01*
X97293337Y-106393100D01*
X97323127Y-106410299D01*
X97406726Y-106432700D01*
X97493274Y-106432700D01*
X97511485Y-106427820D01*
X97582460Y-106429506D01*
X97641258Y-106469298D01*
X97669208Y-106534561D01*
X97670100Y-106549525D01*
X97670100Y-106746870D01*
X97650098Y-106814991D01*
X97633196Y-106835965D01*
X97096967Y-107372195D01*
X97034654Y-107406220D01*
X97007871Y-107409100D01*
X90232128Y-107409100D01*
X90164007Y-107389098D01*
X90143033Y-107372195D01*
X85300805Y-102529967D01*
X85266779Y-102467655D01*
X85263900Y-102440872D01*
X85263900Y-96681129D01*
X85283902Y-96613008D01*
X85300805Y-96592033D01*
X85444035Y-96448804D01*
X85506347Y-96414779D01*
X85533130Y-96411900D01*
X88068850Y-96411900D01*
X88140037Y-96392825D01*
X88203862Y-96355976D01*
X88636976Y-95922863D01*
X88673825Y-95859038D01*
X88680765Y-95833138D01*
X88684187Y-95820366D01*
X88684187Y-95820364D01*
X88692900Y-95787850D01*
X88692900Y-95510833D01*
X88712902Y-95442712D01*
X88766558Y-95396219D01*
X88799189Y-95386385D01*
X88801422Y-95386032D01*
X88838896Y-95366937D01*
X88908673Y-95353833D01*
X88974458Y-95380533D01*
G37*
G04 #@! TD.AperFunction*
G04 #@! TA.AperFunction,Conductor*
G36*
X107389688Y-93485402D02*
G01*
X107433834Y-93534197D01*
X107478967Y-93622775D01*
X107495720Y-93655655D01*
X107590345Y-93750280D01*
X107709578Y-93811032D01*
X107808502Y-93826700D01*
X107808505Y-93826700D01*
X108387495Y-93826700D01*
X108387498Y-93826700D01*
X108486422Y-93811032D01*
X108523896Y-93791937D01*
X108593673Y-93778833D01*
X108659458Y-93805533D01*
X108700365Y-93863560D01*
X108707100Y-93904204D01*
X108707100Y-94041795D01*
X108687098Y-94109916D01*
X108633442Y-94156409D01*
X108563168Y-94166513D01*
X108523898Y-94154062D01*
X108486425Y-94134969D01*
X108486423Y-94134968D01*
X108486422Y-94134968D01*
X108387498Y-94119300D01*
X107808502Y-94119300D01*
X107709578Y-94134968D01*
X107709576Y-94134968D01*
X107709576Y-94134969D01*
X107590345Y-94195719D01*
X107495719Y-94290345D01*
X107459504Y-94361423D01*
X107434968Y-94409578D01*
X107419300Y-94508502D01*
X107419300Y-95012498D01*
X107434968Y-95111422D01*
X107465344Y-95171038D01*
X107495718Y-95230653D01*
X107495720Y-95230655D01*
X107590345Y-95325280D01*
X107709578Y-95386032D01*
X107808502Y-95401700D01*
X107808505Y-95401700D01*
X108387495Y-95401700D01*
X108387498Y-95401700D01*
X108486422Y-95386032D01*
X108605655Y-95325280D01*
X108700280Y-95230655D01*
X108761032Y-95111422D01*
X108765322Y-95084332D01*
X108795732Y-95020179D01*
X108826769Y-94994921D01*
X108844862Y-94984476D01*
X108873005Y-94956332D01*
X108935315Y-94922308D01*
X109006131Y-94927372D01*
X109062967Y-94969918D01*
X109087779Y-95036437D01*
X109088100Y-95045428D01*
X109088100Y-103837872D01*
X109068098Y-103905993D01*
X109051195Y-103926967D01*
X108165967Y-104812195D01*
X108103655Y-104846221D01*
X108076872Y-104849100D01*
X104652928Y-104849100D01*
X104584807Y-104829098D01*
X104538314Y-104775442D01*
X104528210Y-104705168D01*
X104557704Y-104640588D01*
X104563816Y-104634021D01*
X105400976Y-103796863D01*
X105437825Y-103733038D01*
X105445293Y-103705168D01*
X105451595Y-103681650D01*
X105451595Y-103681647D01*
X105456900Y-103661850D01*
X105456900Y-95847129D01*
X105476902Y-95779008D01*
X105493805Y-95758033D01*
X105616777Y-95635061D01*
X105781976Y-95469863D01*
X105788644Y-95458312D01*
X105840022Y-95409318D01*
X105878047Y-95396861D01*
X105946422Y-95386032D01*
X106065655Y-95325280D01*
X106160280Y-95230655D01*
X106221032Y-95111422D01*
X106236700Y-95012498D01*
X106236700Y-94508502D01*
X106221032Y-94409578D01*
X106160280Y-94290345D01*
X106065655Y-94195720D01*
X106065654Y-94195719D01*
X106006038Y-94165344D01*
X105946422Y-94134968D01*
X105847498Y-94119300D01*
X105268502Y-94119300D01*
X105169578Y-94134968D01*
X105169576Y-94134968D01*
X105169574Y-94134969D01*
X105132102Y-94154062D01*
X105062325Y-94167166D01*
X104996540Y-94140465D01*
X104955635Y-94082437D01*
X104948900Y-94041795D01*
X104948900Y-93904204D01*
X104968902Y-93836083D01*
X105022558Y-93789590D01*
X105092832Y-93779486D01*
X105132103Y-93791937D01*
X105169578Y-93811032D01*
X105268502Y-93826700D01*
X105268505Y-93826700D01*
X105847495Y-93826700D01*
X105847498Y-93826700D01*
X105946422Y-93811032D01*
X106065655Y-93750280D01*
X106160280Y-93655655D01*
X106211434Y-93555259D01*
X106222166Y-93534197D01*
X106270915Y-93482582D01*
X106334433Y-93465400D01*
X107321567Y-93465400D01*
X107389688Y-93485402D01*
G37*
G04 #@! TD.AperFunction*
G04 #@! TA.AperFunction,Conductor*
G36*
X92149688Y-93485402D02*
G01*
X92193834Y-93534197D01*
X92238967Y-93622775D01*
X92255720Y-93655655D01*
X92350345Y-93750280D01*
X92469578Y-93811032D01*
X92568502Y-93826700D01*
X92568505Y-93826700D01*
X93147495Y-93826700D01*
X93147498Y-93826700D01*
X93246422Y-93811032D01*
X93283896Y-93791937D01*
X93353673Y-93778833D01*
X93419458Y-93805533D01*
X93460365Y-93863560D01*
X93467100Y-93904204D01*
X93467100Y-94041795D01*
X93447098Y-94109916D01*
X93393442Y-94156409D01*
X93323168Y-94166513D01*
X93283898Y-94154062D01*
X93246425Y-94134969D01*
X93246423Y-94134968D01*
X93246422Y-94134968D01*
X93147498Y-94119300D01*
X92568502Y-94119300D01*
X92469578Y-94134968D01*
X92469576Y-94134968D01*
X92469576Y-94134969D01*
X92350345Y-94195719D01*
X92255719Y-94290345D01*
X92219504Y-94361423D01*
X92194968Y-94409578D01*
X92179300Y-94508502D01*
X92179300Y-95012498D01*
X92194968Y-95111422D01*
X92225344Y-95171038D01*
X92255718Y-95230653D01*
X92255720Y-95230655D01*
X92350345Y-95325280D01*
X92469578Y-95386032D01*
X92568502Y-95401700D01*
X92568505Y-95401700D01*
X93147495Y-95401700D01*
X93147498Y-95401700D01*
X93246422Y-95386032D01*
X93365655Y-95325280D01*
X93460280Y-95230655D01*
X93521032Y-95111422D01*
X93525322Y-95084332D01*
X93555732Y-95020179D01*
X93586769Y-94994921D01*
X93604862Y-94984476D01*
X93633005Y-94956332D01*
X93695315Y-94922308D01*
X93766131Y-94927372D01*
X93822967Y-94969918D01*
X93847779Y-95036437D01*
X93848100Y-95045428D01*
X93848100Y-102264853D01*
X93867174Y-102336036D01*
X93867175Y-102336038D01*
X93904021Y-102399858D01*
X93904029Y-102399868D01*
X95138167Y-103634005D01*
X95172192Y-103696317D01*
X95167128Y-103767132D01*
X95124581Y-103823968D01*
X95058061Y-103848779D01*
X95049072Y-103849100D01*
X93784129Y-103849100D01*
X93716008Y-103829098D01*
X93695034Y-103812195D01*
X90634805Y-100751966D01*
X90600779Y-100689654D01*
X90597900Y-100662871D01*
X90597900Y-95510833D01*
X90617902Y-95442712D01*
X90671558Y-95396219D01*
X90704189Y-95386385D01*
X90706422Y-95386032D01*
X90825655Y-95325280D01*
X90920280Y-95230655D01*
X90981032Y-95111422D01*
X90996700Y-95012498D01*
X90996700Y-94508502D01*
X90981032Y-94409578D01*
X90920280Y-94290345D01*
X90825655Y-94195720D01*
X90825654Y-94195719D01*
X90766038Y-94165344D01*
X90706422Y-94134968D01*
X90607498Y-94119300D01*
X90028502Y-94119300D01*
X90023551Y-94119300D01*
X90023551Y-94117782D01*
X89960674Y-94104560D01*
X89910124Y-94054708D01*
X89894290Y-93993556D01*
X89894290Y-93952443D01*
X89914292Y-93884322D01*
X89967948Y-93837829D01*
X90023551Y-93828004D01*
X90023551Y-93826700D01*
X90607495Y-93826700D01*
X90607498Y-93826700D01*
X90706422Y-93811032D01*
X90825655Y-93750280D01*
X90920280Y-93655655D01*
X90971434Y-93555259D01*
X90982166Y-93534197D01*
X91030915Y-93482582D01*
X91094433Y-93465400D01*
X92081567Y-93465400D01*
X92149688Y-93485402D01*
G37*
G04 #@! TD.AperFunction*
G04 #@! TA.AperFunction,Conductor*
G36*
X104307132Y-95977872D02*
G01*
X104363968Y-96020419D01*
X104388779Y-96086939D01*
X104389100Y-96095928D01*
X104389100Y-103202872D01*
X104369098Y-103270993D01*
X104352195Y-103291967D01*
X103831967Y-103812195D01*
X103769655Y-103846221D01*
X103742872Y-103849100D01*
X103429888Y-103849100D01*
X103361767Y-103829098D01*
X103315274Y-103775442D01*
X103305170Y-103705168D01*
X103315275Y-103670757D01*
X103319343Y-103661849D01*
X103334676Y-103628275D01*
X103342171Y-103576149D01*
X103353407Y-103498003D01*
X103353407Y-103497996D01*
X103334677Y-103367731D01*
X103334676Y-103367730D01*
X103334676Y-103367725D01*
X103280002Y-103248004D01*
X103193812Y-103148536D01*
X103193811Y-103148535D01*
X103132014Y-103108821D01*
X103083091Y-103077380D01*
X103069846Y-103073491D01*
X102985507Y-103048727D01*
X102925781Y-103010344D01*
X102896288Y-102945763D01*
X102906391Y-102875489D01*
X102934117Y-102838452D01*
X102933911Y-102838274D01*
X102936413Y-102835385D01*
X102938497Y-102832603D01*
X102939803Y-102831469D01*
X102939812Y-102831464D01*
X103026002Y-102731996D01*
X103080676Y-102612275D01*
X103084493Y-102585726D01*
X103099407Y-102482003D01*
X103099407Y-102481996D01*
X103080677Y-102351731D01*
X103080676Y-102351730D01*
X103080676Y-102351725D01*
X103054465Y-102294332D01*
X103044363Y-102224059D01*
X103073856Y-102159478D01*
X103106079Y-102132872D01*
X103157862Y-102102976D01*
X104003976Y-101256862D01*
X104040825Y-101193037D01*
X104059900Y-101121850D01*
X104059900Y-101048150D01*
X104059900Y-96173128D01*
X104079902Y-96105007D01*
X104096805Y-96084033D01*
X104174005Y-96006833D01*
X104236317Y-95972807D01*
X104307132Y-95977872D01*
G37*
G04 #@! TD.AperFunction*
G04 #@! TA.AperFunction,Conductor*
G36*
X100262802Y-96567095D02*
G01*
X100269385Y-96573223D01*
X100687137Y-96990976D01*
X100687138Y-96990977D01*
X100687140Y-96990978D01*
X100750958Y-97027823D01*
X100750960Y-97027824D01*
X100750962Y-97027825D01*
X100761535Y-97030657D01*
X100766009Y-97031856D01*
X100766019Y-97031858D01*
X100822150Y-97046900D01*
X102595872Y-97046900D01*
X102663993Y-97066902D01*
X102684967Y-97083805D01*
X102955195Y-97354033D01*
X102989221Y-97416345D01*
X102992100Y-97443128D01*
X102992100Y-100662870D01*
X102972098Y-100730991D01*
X102955196Y-100751965D01*
X102811967Y-100895195D01*
X102749655Y-100929220D01*
X102722871Y-100932100D01*
X99918800Y-100932100D01*
X99850679Y-100912098D01*
X99804186Y-100858442D01*
X99792800Y-100806100D01*
X99792800Y-100705490D01*
X99812802Y-100637369D01*
X99861597Y-100593223D01*
X99957655Y-100544280D01*
X100052280Y-100449655D01*
X100113032Y-100330422D01*
X100128700Y-100231498D01*
X100128700Y-99652502D01*
X100113032Y-99553578D01*
X100052280Y-99434345D01*
X99957655Y-99339720D01*
X99957654Y-99339719D01*
X99908563Y-99314706D01*
X99864520Y-99292266D01*
X99812907Y-99243519D01*
X99795841Y-99174604D01*
X99818742Y-99107402D01*
X99864520Y-99067734D01*
X99957655Y-99020280D01*
X100052280Y-98925655D01*
X100113032Y-98806422D01*
X100128700Y-98707498D01*
X100128700Y-98128502D01*
X100113032Y-98029578D01*
X100052280Y-97910345D01*
X99957655Y-97815720D01*
X99930651Y-97801961D01*
X99836197Y-97753834D01*
X99784582Y-97705085D01*
X99767400Y-97641567D01*
X99767400Y-97417628D01*
X99787402Y-97349507D01*
X99804300Y-97328537D01*
X99998366Y-97134472D01*
X100035215Y-97070647D01*
X100054290Y-96999460D01*
X100054290Y-96925760D01*
X100054290Y-96662319D01*
X100074292Y-96594198D01*
X100127948Y-96547705D01*
X100198222Y-96537601D01*
X100262802Y-96567095D01*
G37*
G04 #@! TD.AperFunction*
G04 #@! TA.AperFunction,Conductor*
G36*
X99155927Y-97066902D02*
G01*
X99202420Y-97120558D01*
X99212524Y-97190832D01*
X99209513Y-97205511D01*
X99207600Y-97212650D01*
X99207600Y-97641567D01*
X99187598Y-97709688D01*
X99138803Y-97753834D01*
X99017346Y-97815719D01*
X99017342Y-97815722D01*
X98978087Y-97854977D01*
X98915775Y-97889002D01*
X98844959Y-97883936D01*
X98788124Y-97841389D01*
X98781752Y-97832028D01*
X98705204Y-97707925D01*
X98705199Y-97707919D01*
X98585080Y-97587800D01*
X98585074Y-97587795D01*
X98440479Y-97498607D01*
X98279210Y-97445169D01*
X98279206Y-97445168D01*
X98179681Y-97435000D01*
X98166500Y-97435000D01*
X98166500Y-100070000D01*
X98146498Y-100138121D01*
X98092842Y-100184614D01*
X98040500Y-100196000D01*
X96967001Y-100196000D01*
X96967001Y-100246673D01*
X96977168Y-100346208D01*
X97030607Y-100507478D01*
X97095665Y-100612953D01*
X97114402Y-100681432D01*
X97093143Y-100749171D01*
X97038636Y-100794663D01*
X96988424Y-100805100D01*
X96582128Y-100805100D01*
X96514007Y-100785098D01*
X96493033Y-100768195D01*
X96476805Y-100751967D01*
X96442779Y-100689655D01*
X96439900Y-100662872D01*
X96439900Y-99637318D01*
X96967000Y-99637318D01*
X96967000Y-99688000D01*
X97658500Y-99688000D01*
X97658500Y-98672000D01*
X96967001Y-98672000D01*
X96967001Y-98722673D01*
X96977168Y-98822208D01*
X97030607Y-98983478D01*
X97111023Y-99113853D01*
X97129760Y-99182333D01*
X97111023Y-99246147D01*
X97030607Y-99376520D01*
X96977169Y-99537789D01*
X96977168Y-99537793D01*
X96967000Y-99637318D01*
X96439900Y-99637318D01*
X96439900Y-98113318D01*
X96967000Y-98113318D01*
X96967000Y-98164000D01*
X97658500Y-98164000D01*
X97658500Y-97435000D01*
X97658499Y-97434999D01*
X97645335Y-97435000D01*
X97545792Y-97445168D01*
X97384521Y-97498607D01*
X97239925Y-97587795D01*
X97239919Y-97587800D01*
X97119800Y-97707919D01*
X97119795Y-97707925D01*
X97030607Y-97852520D01*
X96977169Y-98013789D01*
X96977168Y-98013793D01*
X96967000Y-98113318D01*
X96439900Y-98113318D01*
X96439900Y-97316129D01*
X96459902Y-97248008D01*
X96476805Y-97227033D01*
X96620035Y-97083804D01*
X96682347Y-97049779D01*
X96709130Y-97046900D01*
X99087806Y-97046900D01*
X99155927Y-97066902D01*
G37*
G04 #@! TD.AperFunction*
G04 #@! TA.AperFunction,Conductor*
G36*
X101365212Y-94738623D02*
G01*
X101391819Y-94770847D01*
X101397021Y-94779858D01*
X101397022Y-94779859D01*
X101397024Y-94779862D01*
X101549524Y-94932362D01*
X101601638Y-94984476D01*
X101665463Y-95021325D01*
X101736650Y-95040400D01*
X102241567Y-95040400D01*
X102309688Y-95060402D01*
X102353834Y-95109197D01*
X102363630Y-95128423D01*
X102415720Y-95230655D01*
X102510345Y-95325280D01*
X102629578Y-95386032D01*
X102728502Y-95401700D01*
X102728505Y-95401700D01*
X103307495Y-95401700D01*
X103307498Y-95401700D01*
X103406422Y-95386032D01*
X103525655Y-95325280D01*
X103620280Y-95230655D01*
X103672370Y-95128423D01*
X103682166Y-95109197D01*
X103730915Y-95057582D01*
X103783412Y-95043381D01*
X103783162Y-95041478D01*
X103791345Y-95040400D01*
X103791350Y-95040400D01*
X103809300Y-95035590D01*
X103849488Y-95024822D01*
X103920464Y-95026511D01*
X103979260Y-95066304D01*
X104007209Y-95131568D01*
X104008100Y-95146528D01*
X104008100Y-95328870D01*
X103988098Y-95396991D01*
X103971196Y-95417965D01*
X103608138Y-95781024D01*
X103608137Y-95781024D01*
X103556029Y-95833131D01*
X103556021Y-95833141D01*
X103519175Y-95896961D01*
X103519174Y-95896963D01*
X103500100Y-95968146D01*
X103500100Y-96803070D01*
X103480098Y-96871191D01*
X103426442Y-96917684D01*
X103356168Y-96927788D01*
X103291588Y-96898294D01*
X103285005Y-96892166D01*
X102935864Y-96543026D01*
X102935858Y-96543021D01*
X102872038Y-96506175D01*
X102872036Y-96506174D01*
X102800853Y-96487100D01*
X102800850Y-96487100D01*
X101027129Y-96487100D01*
X100959008Y-96467098D01*
X100938034Y-96450195D01*
X100794805Y-96306966D01*
X100760779Y-96244654D01*
X100757900Y-96217871D01*
X100757900Y-95510833D01*
X100777902Y-95442712D01*
X100831558Y-95396219D01*
X100864189Y-95386385D01*
X100866422Y-95386032D01*
X100985655Y-95325280D01*
X101080280Y-95230655D01*
X101141032Y-95111422D01*
X101156700Y-95012498D01*
X101156700Y-94833847D01*
X101176702Y-94765726D01*
X101230358Y-94719233D01*
X101300632Y-94709129D01*
X101365212Y-94738623D01*
G37*
G04 #@! TD.AperFunction*
G04 #@! TA.AperFunction,Conductor*
G36*
X97229688Y-93485402D02*
G01*
X97273834Y-93534197D01*
X97318967Y-93622775D01*
X97335720Y-93655655D01*
X97430345Y-93750280D01*
X97549578Y-93811032D01*
X97648502Y-93826700D01*
X97648505Y-93826700D01*
X98227495Y-93826700D01*
X98227498Y-93826700D01*
X98326422Y-93811032D01*
X98363896Y-93791937D01*
X98433673Y-93778833D01*
X98499458Y-93805533D01*
X98540365Y-93863560D01*
X98547100Y-93904204D01*
X98547100Y-94041795D01*
X98527098Y-94109916D01*
X98473442Y-94156409D01*
X98403168Y-94166513D01*
X98363898Y-94154062D01*
X98326425Y-94134969D01*
X98326423Y-94134968D01*
X98326422Y-94134968D01*
X98227498Y-94119300D01*
X97648502Y-94119300D01*
X97549578Y-94134968D01*
X97549576Y-94134968D01*
X97549576Y-94134969D01*
X97430345Y-94195719D01*
X97335719Y-94290345D01*
X97299504Y-94361423D01*
X97274968Y-94409578D01*
X97259300Y-94508502D01*
X97259300Y-95012498D01*
X97274968Y-95111422D01*
X97305344Y-95171038D01*
X97335718Y-95230653D01*
X97335720Y-95230655D01*
X97430345Y-95325280D01*
X97549578Y-95386032D01*
X97648502Y-95401700D01*
X97648505Y-95401700D01*
X98227495Y-95401700D01*
X98227498Y-95401700D01*
X98326422Y-95386032D01*
X98445655Y-95325280D01*
X98540280Y-95230655D01*
X98601032Y-95111422D01*
X98601259Y-95109987D01*
X98601461Y-95108715D01*
X98602894Y-95105691D01*
X98604097Y-95101990D01*
X98604575Y-95102145D01*
X98631872Y-95044561D01*
X98692139Y-95007033D01*
X98763128Y-95008045D01*
X98822301Y-95047277D01*
X98850870Y-95112271D01*
X98851910Y-95128423D01*
X98851910Y-95853100D01*
X98831908Y-95921221D01*
X98778252Y-95967714D01*
X98725910Y-95979100D01*
X96250146Y-95979100D01*
X96178963Y-95998174D01*
X96178961Y-95998175D01*
X96115141Y-96035021D01*
X96115131Y-96035029D01*
X95638995Y-96511166D01*
X95576683Y-96545192D01*
X95505868Y-96540127D01*
X95449032Y-96497580D01*
X95424221Y-96431060D01*
X95423900Y-96422071D01*
X95423900Y-96173128D01*
X95443902Y-96105007D01*
X95460800Y-96084037D01*
X95621976Y-95922862D01*
X95658825Y-95859038D01*
X95677900Y-95787850D01*
X95677900Y-95714150D01*
X95677900Y-95510833D01*
X95697902Y-95442712D01*
X95751558Y-95396219D01*
X95784189Y-95386385D01*
X95786422Y-95386032D01*
X95905655Y-95325280D01*
X96000280Y-95230655D01*
X96061032Y-95111422D01*
X96076700Y-95012498D01*
X96076700Y-94508502D01*
X96061032Y-94409578D01*
X96000280Y-94290345D01*
X95905655Y-94195720D01*
X95905654Y-94195719D01*
X95846038Y-94165344D01*
X95786422Y-94134968D01*
X95687498Y-94119300D01*
X95108502Y-94119300D01*
X95061610Y-94126727D01*
X94991199Y-94117627D01*
X94936885Y-94071905D01*
X94915913Y-94004076D01*
X94915900Y-94002278D01*
X94915900Y-93943721D01*
X94935902Y-93875600D01*
X94989558Y-93829107D01*
X95059832Y-93819003D01*
X95061557Y-93819264D01*
X95086688Y-93823245D01*
X95108500Y-93826700D01*
X95108502Y-93826700D01*
X95687495Y-93826700D01*
X95687498Y-93826700D01*
X95786422Y-93811032D01*
X95905655Y-93750280D01*
X96000280Y-93655655D01*
X96051434Y-93555259D01*
X96062166Y-93534197D01*
X96110915Y-93482582D01*
X96174433Y-93465400D01*
X97161567Y-93465400D01*
X97229688Y-93485402D01*
G37*
G04 #@! TD.AperFunction*
G04 #@! TA.AperFunction,Conductor*
G36*
X88974458Y-90300533D02*
G01*
X89015365Y-90358560D01*
X89022100Y-90399204D01*
X89022100Y-92466795D01*
X89002098Y-92534916D01*
X88948442Y-92581409D01*
X88878168Y-92591513D01*
X88838898Y-92579062D01*
X88801425Y-92559969D01*
X88801423Y-92559968D01*
X88801422Y-92559968D01*
X88702498Y-92544300D01*
X88123502Y-92544300D01*
X88024578Y-92559968D01*
X88024576Y-92559968D01*
X88024576Y-92559969D01*
X87905345Y-92620719D01*
X87810721Y-92715343D01*
X87810719Y-92715346D01*
X87748834Y-92836803D01*
X87700085Y-92888418D01*
X87636567Y-92905600D01*
X87090150Y-92905600D01*
X87081465Y-92907927D01*
X87034008Y-92920642D01*
X87034009Y-92920643D01*
X87018958Y-92924676D01*
X86955140Y-92961521D01*
X86955134Y-92961526D01*
X86742638Y-93174024D01*
X86742637Y-93174024D01*
X86690529Y-93226131D01*
X86690521Y-93226141D01*
X86680078Y-93244230D01*
X86628695Y-93293222D01*
X86590673Y-93305676D01*
X86563578Y-93309967D01*
X86444345Y-93370719D01*
X86349719Y-93465345D01*
X86298758Y-93565363D01*
X86288968Y-93584578D01*
X86273300Y-93683502D01*
X86273300Y-94262498D01*
X86288968Y-94361422D01*
X86309640Y-94401993D01*
X86349691Y-94480600D01*
X86349720Y-94480655D01*
X86444345Y-94575280D01*
X86563578Y-94636032D01*
X86662502Y-94651700D01*
X86662505Y-94651700D01*
X87166495Y-94651700D01*
X87166498Y-94651700D01*
X87265422Y-94636032D01*
X87384655Y-94575280D01*
X87479280Y-94480655D01*
X87496033Y-94447774D01*
X87544781Y-94396159D01*
X87613695Y-94379093D01*
X87680897Y-94401993D01*
X87725050Y-94457590D01*
X87734300Y-94504977D01*
X87734300Y-94508502D01*
X87734300Y-95012498D01*
X87749968Y-95111422D01*
X87780344Y-95171038D01*
X87810718Y-95230653D01*
X87810720Y-95230655D01*
X87905345Y-95325280D01*
X88024578Y-95386032D01*
X88026805Y-95386384D01*
X88029296Y-95387565D01*
X88034005Y-95389095D01*
X88033807Y-95389703D01*
X88090957Y-95416790D01*
X88128488Y-95477056D01*
X88133100Y-95510833D01*
X88133100Y-95582870D01*
X88113098Y-95650991D01*
X88096196Y-95671965D01*
X87952967Y-95815195D01*
X87890655Y-95849220D01*
X87863871Y-95852100D01*
X85328150Y-95852100D01*
X85319465Y-95854427D01*
X85272008Y-95867142D01*
X85272009Y-95867143D01*
X85256958Y-95871176D01*
X85193140Y-95908021D01*
X85193130Y-95908029D01*
X84970995Y-96130165D01*
X84908683Y-96164191D01*
X84837868Y-96159126D01*
X84781032Y-96116579D01*
X84756221Y-96050059D01*
X84755900Y-96041070D01*
X84755900Y-94723090D01*
X84775902Y-94654969D01*
X84829558Y-94608476D01*
X84899832Y-94598372D01*
X84939101Y-94610822D01*
X84988578Y-94636032D01*
X85087502Y-94651700D01*
X85087505Y-94651700D01*
X85591495Y-94651700D01*
X85591498Y-94651700D01*
X85690422Y-94636032D01*
X85809655Y-94575280D01*
X85904280Y-94480655D01*
X85965032Y-94361422D01*
X85980700Y-94262498D01*
X85980700Y-93683502D01*
X85965032Y-93584578D01*
X85904280Y-93465345D01*
X85809655Y-93370720D01*
X85809654Y-93370719D01*
X85746300Y-93338439D01*
X85690422Y-93309968D01*
X85649586Y-93303500D01*
X85585435Y-93273088D01*
X85547909Y-93212819D01*
X85543300Y-93179052D01*
X85543300Y-93096588D01*
X85563302Y-93028467D01*
X85574076Y-93014075D01*
X85627002Y-92952996D01*
X85681676Y-92833275D01*
X85698632Y-92715345D01*
X85700407Y-92703003D01*
X85700407Y-92702996D01*
X85681677Y-92572731D01*
X85681676Y-92572730D01*
X85681676Y-92572725D01*
X85627002Y-92453004D01*
X85540812Y-92353536D01*
X85540811Y-92353535D01*
X85485451Y-92317958D01*
X85430091Y-92282380D01*
X85303807Y-92245300D01*
X85172193Y-92245300D01*
X85045911Y-92282379D01*
X85045903Y-92282382D01*
X84950020Y-92344003D01*
X84881900Y-92364005D01*
X84813779Y-92344003D01*
X84767286Y-92290347D01*
X84755900Y-92238005D01*
X84755900Y-91220129D01*
X84775902Y-91152008D01*
X84792805Y-91131033D01*
X84936035Y-90987804D01*
X84998347Y-90953779D01*
X85025130Y-90950900D01*
X87996850Y-90950900D01*
X88068037Y-90931825D01*
X88131862Y-90894976D01*
X88636976Y-90389862D01*
X88643645Y-90378309D01*
X88695024Y-90329317D01*
X88733047Y-90316861D01*
X88801422Y-90306032D01*
X88838896Y-90286937D01*
X88908673Y-90273833D01*
X88974458Y-90300533D01*
G37*
G04 #@! TD.AperFunction*
G04 #@! TA.AperFunction,Conductor*
G36*
X92149688Y-88405402D02*
G01*
X92193834Y-88454197D01*
X92219594Y-88504753D01*
X92255720Y-88575655D01*
X92350345Y-88670280D01*
X92469578Y-88731032D01*
X92568502Y-88746700D01*
X92568505Y-88746700D01*
X93147495Y-88746700D01*
X93147498Y-88746700D01*
X93246422Y-88731032D01*
X93283896Y-88711937D01*
X93353673Y-88698833D01*
X93419458Y-88725533D01*
X93460365Y-88783560D01*
X93467100Y-88824204D01*
X93467100Y-88961795D01*
X93447098Y-89029916D01*
X93393442Y-89076409D01*
X93323168Y-89086513D01*
X93283898Y-89074062D01*
X93246425Y-89054969D01*
X93246423Y-89054968D01*
X93246422Y-89054968D01*
X93147498Y-89039300D01*
X92568502Y-89039300D01*
X92469578Y-89054968D01*
X92469576Y-89054968D01*
X92469576Y-89054969D01*
X92350345Y-89115719D01*
X92255719Y-89210345D01*
X92219504Y-89281423D01*
X92194968Y-89329578D01*
X92179300Y-89428502D01*
X92179300Y-89932498D01*
X92194968Y-90031422D01*
X92194969Y-90031423D01*
X92248899Y-90137269D01*
X92255720Y-90150655D01*
X92350345Y-90245280D01*
X92469578Y-90306032D01*
X92568502Y-90321700D01*
X92568505Y-90321700D01*
X93147495Y-90321700D01*
X93147498Y-90321700D01*
X93246422Y-90306032D01*
X93283896Y-90286937D01*
X93353673Y-90273833D01*
X93419458Y-90300533D01*
X93460365Y-90358560D01*
X93467100Y-90399204D01*
X93467100Y-92466795D01*
X93447098Y-92534916D01*
X93393442Y-92581409D01*
X93323168Y-92591513D01*
X93283898Y-92579062D01*
X93246425Y-92559969D01*
X93246423Y-92559968D01*
X93246422Y-92559968D01*
X93147498Y-92544300D01*
X92568502Y-92544300D01*
X92469578Y-92559968D01*
X92469576Y-92559968D01*
X92469576Y-92559969D01*
X92350345Y-92620719D01*
X92255721Y-92715343D01*
X92255719Y-92715346D01*
X92193834Y-92836803D01*
X92145085Y-92888418D01*
X92081567Y-92905600D01*
X91094433Y-92905600D01*
X91026312Y-92885598D01*
X90982166Y-92836803D01*
X90927100Y-92728730D01*
X90920280Y-92715345D01*
X90825655Y-92620720D01*
X90825654Y-92620719D01*
X90766038Y-92590344D01*
X90706422Y-92559968D01*
X90607498Y-92544300D01*
X90028502Y-92544300D01*
X90023551Y-92544300D01*
X90023551Y-92542782D01*
X89960674Y-92529560D01*
X89910124Y-92479708D01*
X89894290Y-92418556D01*
X89894290Y-90552238D01*
X89914292Y-90484117D01*
X89931195Y-90463143D01*
X90035733Y-90358605D01*
X90098045Y-90324579D01*
X90124828Y-90321700D01*
X90607495Y-90321700D01*
X90607498Y-90321700D01*
X90706422Y-90306032D01*
X90825655Y-90245280D01*
X90920280Y-90150655D01*
X90981032Y-90031422D01*
X90996700Y-89932498D01*
X90996700Y-89428502D01*
X90981032Y-89329578D01*
X90920280Y-89210345D01*
X90825655Y-89115720D01*
X90825654Y-89115719D01*
X90766038Y-89085344D01*
X90706422Y-89054968D01*
X90607498Y-89039300D01*
X90028502Y-89039300D01*
X89929578Y-89054968D01*
X89929576Y-89054968D01*
X89929576Y-89054969D01*
X89810345Y-89115719D01*
X89810343Y-89115721D01*
X89796995Y-89129070D01*
X89734683Y-89163096D01*
X89663868Y-89158031D01*
X89607032Y-89115484D01*
X89582221Y-89048964D01*
X89581900Y-89039975D01*
X89581900Y-88746025D01*
X89601902Y-88677904D01*
X89655558Y-88631411D01*
X89725832Y-88621307D01*
X89790412Y-88650801D01*
X89796995Y-88656930D01*
X89810345Y-88670280D01*
X89929578Y-88731032D01*
X90028502Y-88746700D01*
X90028505Y-88746700D01*
X90607495Y-88746700D01*
X90607498Y-88746700D01*
X90706422Y-88731032D01*
X90825655Y-88670280D01*
X90920280Y-88575655D01*
X90971434Y-88475259D01*
X90982166Y-88454197D01*
X91030915Y-88402582D01*
X91094433Y-88385400D01*
X92081567Y-88385400D01*
X92149688Y-88405402D01*
G37*
G04 #@! TD.AperFunction*
G04 #@! TA.AperFunction,Conductor*
G36*
X98463821Y-80328302D02*
G01*
X98510314Y-80381958D01*
X98521700Y-80434300D01*
X98521700Y-80551191D01*
X98521699Y-80551191D01*
X98542807Y-80629964D01*
X98547100Y-80662575D01*
X98547100Y-82306795D01*
X98527098Y-82374916D01*
X98473442Y-82421409D01*
X98403168Y-82431513D01*
X98363898Y-82419062D01*
X98326425Y-82399969D01*
X98326423Y-82399968D01*
X98326422Y-82399968D01*
X98227498Y-82384300D01*
X97648502Y-82384300D01*
X97549578Y-82399968D01*
X97549576Y-82399968D01*
X97549576Y-82399969D01*
X97430345Y-82460719D01*
X97335721Y-82555343D01*
X97335719Y-82555346D01*
X97273834Y-82676803D01*
X97225085Y-82728418D01*
X97161567Y-82745600D01*
X96174433Y-82745600D01*
X96106312Y-82725598D01*
X96062166Y-82676803D01*
X96007100Y-82568730D01*
X96000280Y-82555345D01*
X95905655Y-82460720D01*
X95905654Y-82460719D01*
X95846038Y-82430344D01*
X95786422Y-82399968D01*
X95687498Y-82384300D01*
X95108502Y-82384300D01*
X95009578Y-82399968D01*
X95009576Y-82399968D01*
X95009576Y-82399969D01*
X94890345Y-82460719D01*
X94795719Y-82555345D01*
X94734969Y-82674576D01*
X94734968Y-82674578D01*
X94719300Y-82773502D01*
X94719300Y-83277498D01*
X94734968Y-83376422D01*
X94734969Y-83376423D01*
X94795718Y-83495653D01*
X94795720Y-83495655D01*
X94890345Y-83590280D01*
X95009578Y-83651032D01*
X95108502Y-83666700D01*
X95108505Y-83666700D01*
X95687495Y-83666700D01*
X95687498Y-83666700D01*
X95786422Y-83651032D01*
X95905655Y-83590280D01*
X96000280Y-83495655D01*
X96051434Y-83395259D01*
X96062166Y-83374197D01*
X96110915Y-83322582D01*
X96174433Y-83305400D01*
X97161567Y-83305400D01*
X97229688Y-83325402D01*
X97273834Y-83374197D01*
X97299594Y-83424753D01*
X97335720Y-83495655D01*
X97430345Y-83590280D01*
X97549578Y-83651032D01*
X97648502Y-83666700D01*
X97648505Y-83666700D01*
X98227495Y-83666700D01*
X98227498Y-83666700D01*
X98326422Y-83651032D01*
X98363896Y-83631937D01*
X98433673Y-83618833D01*
X98499458Y-83645533D01*
X98540365Y-83703560D01*
X98547100Y-83744204D01*
X98547100Y-83881795D01*
X98527098Y-83949916D01*
X98473442Y-83996409D01*
X98403168Y-84006513D01*
X98363898Y-83994062D01*
X98326425Y-83974969D01*
X98326423Y-83974968D01*
X98326422Y-83974968D01*
X98227498Y-83959300D01*
X97648502Y-83959300D01*
X97549578Y-83974968D01*
X97549576Y-83974968D01*
X97549576Y-83974969D01*
X97430345Y-84035719D01*
X97335719Y-84130345D01*
X97299504Y-84201423D01*
X97274968Y-84249578D01*
X97259300Y-84348502D01*
X97259300Y-84852498D01*
X97274968Y-84951422D01*
X97275632Y-84952725D01*
X97328899Y-85057269D01*
X97335720Y-85070655D01*
X97430345Y-85165280D01*
X97549578Y-85226032D01*
X97648502Y-85241700D01*
X97648505Y-85241700D01*
X98227495Y-85241700D01*
X98227498Y-85241700D01*
X98326422Y-85226032D01*
X98363896Y-85206937D01*
X98433673Y-85193833D01*
X98499458Y-85220533D01*
X98540365Y-85278560D01*
X98547100Y-85319204D01*
X98547100Y-87386795D01*
X98527098Y-87454916D01*
X98473442Y-87501409D01*
X98403168Y-87511513D01*
X98363898Y-87499062D01*
X98326425Y-87479969D01*
X98326423Y-87479968D01*
X98326422Y-87479968D01*
X98227498Y-87464300D01*
X97648502Y-87464300D01*
X97549578Y-87479968D01*
X97549576Y-87479968D01*
X97549576Y-87479969D01*
X97430345Y-87540719D01*
X97335721Y-87635343D01*
X97335719Y-87635346D01*
X97273834Y-87756803D01*
X97225085Y-87808418D01*
X97161567Y-87825600D01*
X96174433Y-87825600D01*
X96106312Y-87805598D01*
X96062166Y-87756803D01*
X96007100Y-87648730D01*
X96000280Y-87635345D01*
X95905655Y-87540720D01*
X95905654Y-87540719D01*
X95846038Y-87510344D01*
X95786422Y-87479968D01*
X95687498Y-87464300D01*
X95108502Y-87464300D01*
X95009578Y-87479968D01*
X95009576Y-87479968D01*
X95009576Y-87479969D01*
X94890345Y-87540719D01*
X94795719Y-87635345D01*
X94735635Y-87753268D01*
X94734968Y-87754578D01*
X94719300Y-87853502D01*
X94719300Y-88357498D01*
X94734968Y-88456422D01*
X94734969Y-88456423D01*
X94795718Y-88575653D01*
X94795720Y-88575655D01*
X94890345Y-88670280D01*
X95009578Y-88731032D01*
X95108502Y-88746700D01*
X95108505Y-88746700D01*
X95687495Y-88746700D01*
X95687498Y-88746700D01*
X95786422Y-88731032D01*
X95905655Y-88670280D01*
X96000280Y-88575655D01*
X96051434Y-88475259D01*
X96062166Y-88454197D01*
X96110915Y-88402582D01*
X96174433Y-88385400D01*
X97161567Y-88385400D01*
X97229688Y-88405402D01*
X97273834Y-88454197D01*
X97299594Y-88504753D01*
X97335720Y-88575655D01*
X97430345Y-88670280D01*
X97549578Y-88731032D01*
X97648502Y-88746700D01*
X97648505Y-88746700D01*
X98227495Y-88746700D01*
X98227498Y-88746700D01*
X98326422Y-88731032D01*
X98363896Y-88711937D01*
X98433673Y-88698833D01*
X98499458Y-88725533D01*
X98540365Y-88783560D01*
X98547100Y-88824204D01*
X98547100Y-88961795D01*
X98527098Y-89029916D01*
X98473442Y-89076409D01*
X98403168Y-89086513D01*
X98363898Y-89074062D01*
X98326425Y-89054969D01*
X98326423Y-89054968D01*
X98326422Y-89054968D01*
X98227498Y-89039300D01*
X97648502Y-89039300D01*
X97549578Y-89054968D01*
X97549576Y-89054968D01*
X97549576Y-89054969D01*
X97430345Y-89115719D01*
X97335719Y-89210345D01*
X97299504Y-89281423D01*
X97274968Y-89329578D01*
X97259300Y-89428502D01*
X97259300Y-89932498D01*
X97274968Y-90031422D01*
X97274969Y-90031423D01*
X97328899Y-90137269D01*
X97335720Y-90150655D01*
X97430345Y-90245280D01*
X97549578Y-90306032D01*
X97648502Y-90321700D01*
X97648505Y-90321700D01*
X98227495Y-90321700D01*
X98227498Y-90321700D01*
X98326422Y-90306032D01*
X98363896Y-90286937D01*
X98433673Y-90273833D01*
X98499458Y-90300533D01*
X98540365Y-90358560D01*
X98547100Y-90399204D01*
X98547100Y-92466795D01*
X98527098Y-92534916D01*
X98473442Y-92581409D01*
X98403168Y-92591513D01*
X98363898Y-92579062D01*
X98326425Y-92559969D01*
X98326423Y-92559968D01*
X98326422Y-92559968D01*
X98227498Y-92544300D01*
X97648502Y-92544300D01*
X97549578Y-92559968D01*
X97549576Y-92559968D01*
X97549576Y-92559969D01*
X97430345Y-92620719D01*
X97335721Y-92715343D01*
X97335719Y-92715346D01*
X97273834Y-92836803D01*
X97225085Y-92888418D01*
X97161567Y-92905600D01*
X96174433Y-92905600D01*
X96106312Y-92885598D01*
X96062166Y-92836803D01*
X96007100Y-92728730D01*
X96000280Y-92715345D01*
X95905655Y-92620720D01*
X95905654Y-92620719D01*
X95846038Y-92590344D01*
X95786422Y-92559968D01*
X95687498Y-92544300D01*
X95108502Y-92544300D01*
X95061610Y-92551727D01*
X94991199Y-92542627D01*
X94936885Y-92496905D01*
X94915913Y-92429076D01*
X94915900Y-92427278D01*
X94915900Y-91148128D01*
X94935902Y-91080007D01*
X94952800Y-91059037D01*
X95621976Y-90389862D01*
X95628645Y-90378309D01*
X95680024Y-90329317D01*
X95718047Y-90316861D01*
X95786422Y-90306032D01*
X95905655Y-90245280D01*
X96000280Y-90150655D01*
X96061032Y-90031422D01*
X96076700Y-89932498D01*
X96076700Y-89428502D01*
X96061032Y-89329578D01*
X96000280Y-89210345D01*
X95905655Y-89115720D01*
X95905654Y-89115719D01*
X95846038Y-89085344D01*
X95786422Y-89054968D01*
X95687498Y-89039300D01*
X95108502Y-89039300D01*
X95009578Y-89054968D01*
X95009576Y-89054968D01*
X95009576Y-89054969D01*
X94890345Y-89115719D01*
X94795719Y-89210345D01*
X94759504Y-89281423D01*
X94734968Y-89329578D01*
X94719300Y-89428502D01*
X94719300Y-89932498D01*
X94734968Y-90031422D01*
X94734969Y-90031423D01*
X94795719Y-90150654D01*
X94843517Y-90198452D01*
X94877543Y-90260764D01*
X94872478Y-90331579D01*
X94843518Y-90376642D01*
X94622996Y-90597165D01*
X94560684Y-90631190D01*
X94489868Y-90626126D01*
X94433032Y-90583579D01*
X94408221Y-90517059D01*
X94407900Y-90508070D01*
X94407900Y-86576128D01*
X94427902Y-86508007D01*
X94444805Y-86487033D01*
X95621970Y-85309868D01*
X95621976Y-85309862D01*
X95628646Y-85298308D01*
X95680024Y-85249317D01*
X95718047Y-85236861D01*
X95786422Y-85226032D01*
X95905655Y-85165280D01*
X96000280Y-85070655D01*
X96061032Y-84951422D01*
X96076700Y-84852498D01*
X96076700Y-84348502D01*
X96061032Y-84249578D01*
X96000280Y-84130345D01*
X95905655Y-84035720D01*
X95905654Y-84035719D01*
X95846038Y-84005344D01*
X95786422Y-83974968D01*
X95687498Y-83959300D01*
X95108502Y-83959300D01*
X95009578Y-83974968D01*
X95009576Y-83974968D01*
X95009576Y-83974969D01*
X94890345Y-84035719D01*
X94795719Y-84130345D01*
X94759504Y-84201423D01*
X94734968Y-84249578D01*
X94719300Y-84348502D01*
X94719300Y-84852498D01*
X94734968Y-84951422D01*
X94735632Y-84952725D01*
X94795719Y-85070654D01*
X94843517Y-85118452D01*
X94877543Y-85180764D01*
X94872478Y-85251579D01*
X94843518Y-85296642D01*
X94241996Y-85898165D01*
X94179683Y-85932190D01*
X94108868Y-85927126D01*
X94052032Y-85884579D01*
X94027221Y-85818059D01*
X94026900Y-85809070D01*
X94026900Y-80662575D01*
X94031193Y-80629964D01*
X94031494Y-80628841D01*
X94052300Y-80551193D01*
X94052300Y-80434300D01*
X94072302Y-80366179D01*
X94125958Y-80319686D01*
X94178300Y-80308300D01*
X98278807Y-80308300D01*
X98395700Y-80308300D01*
X98463821Y-80328302D01*
G37*
G04 #@! TD.AperFunction*
G04 #@! TA.AperFunction,Conductor*
G36*
X103543821Y-80328302D02*
G01*
X103590314Y-80381958D01*
X103601700Y-80434300D01*
X103601700Y-80551191D01*
X103601699Y-80551191D01*
X103622807Y-80629964D01*
X103627100Y-80662575D01*
X103627100Y-82306795D01*
X103607098Y-82374916D01*
X103553442Y-82421409D01*
X103483168Y-82431513D01*
X103443898Y-82419062D01*
X103406425Y-82399969D01*
X103406423Y-82399968D01*
X103406422Y-82399968D01*
X103307498Y-82384300D01*
X102728502Y-82384300D01*
X102629578Y-82399968D01*
X102629576Y-82399968D01*
X102629576Y-82399969D01*
X102510345Y-82460719D01*
X102415721Y-82555343D01*
X102415719Y-82555346D01*
X102353834Y-82676803D01*
X102305085Y-82728418D01*
X102241567Y-82745600D01*
X101254433Y-82745600D01*
X101186312Y-82725598D01*
X101142166Y-82676803D01*
X101087100Y-82568730D01*
X101080280Y-82555345D01*
X100985655Y-82460720D01*
X100985654Y-82460719D01*
X100926038Y-82430344D01*
X100866422Y-82399968D01*
X100767498Y-82384300D01*
X100188502Y-82384300D01*
X100089578Y-82399968D01*
X100089576Y-82399968D01*
X100089576Y-82399969D01*
X99970345Y-82460719D01*
X99875719Y-82555345D01*
X99814969Y-82674576D01*
X99814968Y-82674578D01*
X99799300Y-82773502D01*
X99799300Y-83277498D01*
X99814968Y-83376422D01*
X99814969Y-83376423D01*
X99875718Y-83495653D01*
X99875720Y-83495655D01*
X99970345Y-83590280D01*
X100089578Y-83651032D01*
X100188502Y-83666700D01*
X100188505Y-83666700D01*
X100767495Y-83666700D01*
X100767498Y-83666700D01*
X100866422Y-83651032D01*
X100985655Y-83590280D01*
X101080280Y-83495655D01*
X101131434Y-83395259D01*
X101142166Y-83374197D01*
X101190915Y-83322582D01*
X101254433Y-83305400D01*
X102241567Y-83305400D01*
X102309688Y-83325402D01*
X102353834Y-83374197D01*
X102379594Y-83424753D01*
X102415720Y-83495655D01*
X102510345Y-83590280D01*
X102629578Y-83651032D01*
X102728502Y-83666700D01*
X102728505Y-83666700D01*
X103307495Y-83666700D01*
X103307498Y-83666700D01*
X103406422Y-83651032D01*
X103443896Y-83631937D01*
X103513673Y-83618833D01*
X103579458Y-83645533D01*
X103620365Y-83703560D01*
X103627100Y-83744204D01*
X103627100Y-83881795D01*
X103607098Y-83949916D01*
X103553442Y-83996409D01*
X103483168Y-84006513D01*
X103443898Y-83994062D01*
X103406425Y-83974969D01*
X103406423Y-83974968D01*
X103406422Y-83974968D01*
X103307498Y-83959300D01*
X102728502Y-83959300D01*
X102629578Y-83974968D01*
X102629576Y-83974968D01*
X102629576Y-83974969D01*
X102510345Y-84035719D01*
X102415719Y-84130345D01*
X102379504Y-84201423D01*
X102354968Y-84249578D01*
X102339300Y-84348502D01*
X102339300Y-84852498D01*
X102354968Y-84951422D01*
X102355632Y-84952725D01*
X102408899Y-85057269D01*
X102415720Y-85070655D01*
X102510345Y-85165280D01*
X102629578Y-85226032D01*
X102728502Y-85241700D01*
X102728505Y-85241700D01*
X103307495Y-85241700D01*
X103307498Y-85241700D01*
X103406422Y-85226032D01*
X103443896Y-85206937D01*
X103513673Y-85193833D01*
X103579458Y-85220533D01*
X103620365Y-85278560D01*
X103627100Y-85319204D01*
X103627100Y-87386795D01*
X103607098Y-87454916D01*
X103553442Y-87501409D01*
X103483168Y-87511513D01*
X103443898Y-87499062D01*
X103406425Y-87479969D01*
X103406423Y-87479968D01*
X103406422Y-87479968D01*
X103307498Y-87464300D01*
X102728502Y-87464300D01*
X102629578Y-87479968D01*
X102629576Y-87479968D01*
X102629576Y-87479969D01*
X102510345Y-87540719D01*
X102415721Y-87635343D01*
X102415719Y-87635346D01*
X102353834Y-87756803D01*
X102305085Y-87808418D01*
X102241567Y-87825600D01*
X101254433Y-87825600D01*
X101186312Y-87805598D01*
X101142166Y-87756803D01*
X101087100Y-87648730D01*
X101080280Y-87635345D01*
X100985655Y-87540720D01*
X100985654Y-87540719D01*
X100926038Y-87510344D01*
X100866422Y-87479968D01*
X100767498Y-87464300D01*
X100188502Y-87464300D01*
X100089578Y-87479968D01*
X100089576Y-87479968D01*
X100089576Y-87479969D01*
X99970345Y-87540719D01*
X99875719Y-87635345D01*
X99815635Y-87753268D01*
X99814968Y-87754578D01*
X99799300Y-87853502D01*
X99799300Y-88357498D01*
X99814968Y-88456422D01*
X99814969Y-88456423D01*
X99875718Y-88575653D01*
X99875720Y-88575655D01*
X99970345Y-88670280D01*
X100089578Y-88731032D01*
X100188502Y-88746700D01*
X100188505Y-88746700D01*
X100767495Y-88746700D01*
X100767498Y-88746700D01*
X100866422Y-88731032D01*
X100985655Y-88670280D01*
X101080280Y-88575655D01*
X101131434Y-88475259D01*
X101142166Y-88454197D01*
X101190915Y-88402582D01*
X101254433Y-88385400D01*
X102241567Y-88385400D01*
X102309688Y-88405402D01*
X102353834Y-88454197D01*
X102379594Y-88504753D01*
X102415720Y-88575655D01*
X102510345Y-88670280D01*
X102629578Y-88731032D01*
X102728502Y-88746700D01*
X102728505Y-88746700D01*
X103307495Y-88746700D01*
X103307498Y-88746700D01*
X103406422Y-88731032D01*
X103443896Y-88711937D01*
X103513673Y-88698833D01*
X103579458Y-88725533D01*
X103620365Y-88783560D01*
X103627100Y-88824204D01*
X103627100Y-88961795D01*
X103607098Y-89029916D01*
X103553442Y-89076409D01*
X103483168Y-89086513D01*
X103443898Y-89074062D01*
X103406425Y-89054969D01*
X103406423Y-89054968D01*
X103406422Y-89054968D01*
X103307498Y-89039300D01*
X102728502Y-89039300D01*
X102629578Y-89054968D01*
X102629576Y-89054968D01*
X102629576Y-89054969D01*
X102510345Y-89115719D01*
X102415719Y-89210345D01*
X102379504Y-89281423D01*
X102354968Y-89329578D01*
X102339300Y-89428502D01*
X102339300Y-89932498D01*
X102354968Y-90031422D01*
X102354969Y-90031423D01*
X102408899Y-90137269D01*
X102415720Y-90150655D01*
X102510345Y-90245280D01*
X102629578Y-90306032D01*
X102728502Y-90321700D01*
X102728505Y-90321700D01*
X103307495Y-90321700D01*
X103307498Y-90321700D01*
X103406422Y-90306032D01*
X103443896Y-90286937D01*
X103513673Y-90273833D01*
X103579458Y-90300533D01*
X103620365Y-90358560D01*
X103627100Y-90399204D01*
X103627100Y-92466795D01*
X103607098Y-92534916D01*
X103553442Y-92581409D01*
X103483168Y-92591513D01*
X103443898Y-92579062D01*
X103406425Y-92559969D01*
X103406423Y-92559968D01*
X103406422Y-92559968D01*
X103307498Y-92544300D01*
X102728502Y-92544300D01*
X102629578Y-92559968D01*
X102629576Y-92559968D01*
X102629576Y-92559969D01*
X102510345Y-92620719D01*
X102415721Y-92715343D01*
X102415719Y-92715346D01*
X102353834Y-92836803D01*
X102305085Y-92888418D01*
X102241567Y-92905600D01*
X101254433Y-92905600D01*
X101186312Y-92885598D01*
X101142166Y-92836803D01*
X101087100Y-92728730D01*
X101080280Y-92715345D01*
X100985655Y-92620720D01*
X100985654Y-92620719D01*
X100926038Y-92590344D01*
X100866422Y-92559968D01*
X100767498Y-92544300D01*
X100188502Y-92544300D01*
X100089578Y-92559968D01*
X100089576Y-92559968D01*
X100089576Y-92559969D01*
X99970345Y-92620719D01*
X99970343Y-92620721D01*
X99956995Y-92634070D01*
X99894683Y-92668096D01*
X99823868Y-92663031D01*
X99767032Y-92620484D01*
X99742221Y-92553964D01*
X99741900Y-92544975D01*
X99741900Y-90864628D01*
X99761902Y-90796507D01*
X99778805Y-90775533D01*
X100195733Y-90358605D01*
X100258045Y-90324579D01*
X100284828Y-90321700D01*
X100767495Y-90321700D01*
X100767498Y-90321700D01*
X100866422Y-90306032D01*
X100985655Y-90245280D01*
X101080280Y-90150655D01*
X101141032Y-90031422D01*
X101156700Y-89932498D01*
X101156700Y-89428502D01*
X101141032Y-89329578D01*
X101080280Y-89210345D01*
X100985655Y-89115720D01*
X100985654Y-89115719D01*
X100926038Y-89085344D01*
X100866422Y-89054968D01*
X100767498Y-89039300D01*
X100188502Y-89039300D01*
X100089578Y-89054968D01*
X100089576Y-89054968D01*
X100089576Y-89054969D01*
X99970345Y-89115719D01*
X99875719Y-89210345D01*
X99839504Y-89281423D01*
X99814968Y-89329578D01*
X99799300Y-89428502D01*
X99799300Y-89428505D01*
X99799300Y-89911170D01*
X99779298Y-89979291D01*
X99762395Y-90000265D01*
X99626805Y-90135855D01*
X99564493Y-90169881D01*
X99493678Y-90164816D01*
X99436842Y-90122269D01*
X99412031Y-90055749D01*
X99411710Y-90046760D01*
X99411710Y-86652318D01*
X99431712Y-86584197D01*
X99448615Y-86563223D01*
X100701970Y-85309868D01*
X100701976Y-85309862D01*
X100708646Y-85298308D01*
X100760024Y-85249317D01*
X100798047Y-85236861D01*
X100866422Y-85226032D01*
X100985655Y-85165280D01*
X101080280Y-85070655D01*
X101141032Y-84951422D01*
X101156700Y-84852498D01*
X101156700Y-84348502D01*
X101141032Y-84249578D01*
X101080280Y-84130345D01*
X100985655Y-84035720D01*
X100985654Y-84035719D01*
X100926038Y-84005344D01*
X100866422Y-83974968D01*
X100767498Y-83959300D01*
X100188502Y-83959300D01*
X100089578Y-83974968D01*
X100089576Y-83974968D01*
X100089576Y-83974969D01*
X99970345Y-84035719D01*
X99875719Y-84130345D01*
X99839504Y-84201423D01*
X99814968Y-84249578D01*
X99799300Y-84348502D01*
X99799300Y-84852498D01*
X99814968Y-84951422D01*
X99815632Y-84952725D01*
X99875719Y-85070654D01*
X99923517Y-85118452D01*
X99957543Y-85180764D01*
X99952478Y-85251579D01*
X99923518Y-85296642D01*
X99321996Y-85898165D01*
X99259683Y-85932190D01*
X99188868Y-85927126D01*
X99132032Y-85884579D01*
X99107221Y-85818059D01*
X99106900Y-85809070D01*
X99106900Y-80662575D01*
X99111193Y-80629964D01*
X99111494Y-80628841D01*
X99132300Y-80551193D01*
X99132300Y-80434300D01*
X99152302Y-80366179D01*
X99205958Y-80319686D01*
X99258300Y-80308300D01*
X103475700Y-80308300D01*
X103543821Y-80328302D01*
G37*
G04 #@! TD.AperFunction*
G04 #@! TA.AperFunction,Conductor*
G36*
X108623821Y-80328302D02*
G01*
X108670314Y-80381958D01*
X108681700Y-80434300D01*
X108681700Y-80678191D01*
X108681699Y-80678191D01*
X108702807Y-80756964D01*
X108707100Y-80789575D01*
X108707100Y-82306795D01*
X108687098Y-82374916D01*
X108633442Y-82421409D01*
X108563168Y-82431513D01*
X108523898Y-82419062D01*
X108486425Y-82399969D01*
X108486423Y-82399968D01*
X108486422Y-82399968D01*
X108387498Y-82384300D01*
X107808502Y-82384300D01*
X107709578Y-82399968D01*
X107709576Y-82399968D01*
X107709576Y-82399969D01*
X107590345Y-82460719D01*
X107495721Y-82555343D01*
X107495719Y-82555346D01*
X107433834Y-82676803D01*
X107385085Y-82728418D01*
X107321567Y-82745600D01*
X106334433Y-82745600D01*
X106266312Y-82725598D01*
X106222166Y-82676803D01*
X106167100Y-82568730D01*
X106160280Y-82555345D01*
X106065655Y-82460720D01*
X106065654Y-82460719D01*
X106006038Y-82430344D01*
X105946422Y-82399968D01*
X105847498Y-82384300D01*
X105268502Y-82384300D01*
X105169578Y-82399968D01*
X105169576Y-82399968D01*
X105169576Y-82399969D01*
X105050345Y-82460719D01*
X104955719Y-82555345D01*
X104894969Y-82674576D01*
X104894968Y-82674578D01*
X104879300Y-82773502D01*
X104879300Y-83277498D01*
X104894968Y-83376422D01*
X104894969Y-83376423D01*
X104955718Y-83495653D01*
X104955720Y-83495655D01*
X105050345Y-83590280D01*
X105169578Y-83651032D01*
X105268502Y-83666700D01*
X105268505Y-83666700D01*
X105847495Y-83666700D01*
X105847498Y-83666700D01*
X105946422Y-83651032D01*
X106065655Y-83590280D01*
X106160280Y-83495655D01*
X106211434Y-83395259D01*
X106222166Y-83374197D01*
X106270915Y-83322582D01*
X106334433Y-83305400D01*
X107321567Y-83305400D01*
X107389688Y-83325402D01*
X107433834Y-83374197D01*
X107459594Y-83424753D01*
X107495720Y-83495655D01*
X107590345Y-83590280D01*
X107709578Y-83651032D01*
X107808502Y-83666700D01*
X107808505Y-83666700D01*
X108387495Y-83666700D01*
X108387498Y-83666700D01*
X108486422Y-83651032D01*
X108523896Y-83631937D01*
X108593673Y-83618833D01*
X108659458Y-83645533D01*
X108700365Y-83703560D01*
X108707100Y-83744204D01*
X108707100Y-83881795D01*
X108687098Y-83949916D01*
X108633442Y-83996409D01*
X108563168Y-84006513D01*
X108523898Y-83994062D01*
X108486425Y-83974969D01*
X108486423Y-83974968D01*
X108486422Y-83974968D01*
X108387498Y-83959300D01*
X107808502Y-83959300D01*
X107709578Y-83974968D01*
X107709576Y-83974968D01*
X107709576Y-83974969D01*
X107590345Y-84035719D01*
X107495719Y-84130345D01*
X107459504Y-84201423D01*
X107434968Y-84249578D01*
X107419300Y-84348502D01*
X107419300Y-84852498D01*
X107434968Y-84951422D01*
X107435632Y-84952725D01*
X107488899Y-85057269D01*
X107495720Y-85070655D01*
X107590345Y-85165280D01*
X107709578Y-85226032D01*
X107808502Y-85241700D01*
X107808505Y-85241700D01*
X108387495Y-85241700D01*
X108387498Y-85241700D01*
X108486422Y-85226032D01*
X108523896Y-85206937D01*
X108593673Y-85193833D01*
X108659458Y-85220533D01*
X108700365Y-85278560D01*
X108707100Y-85319204D01*
X108707100Y-87386795D01*
X108687098Y-87454916D01*
X108633442Y-87501409D01*
X108563168Y-87511513D01*
X108523898Y-87499062D01*
X108486425Y-87479969D01*
X108486423Y-87479968D01*
X108486422Y-87479968D01*
X108387498Y-87464300D01*
X107808502Y-87464300D01*
X107709578Y-87479968D01*
X107709576Y-87479968D01*
X107709576Y-87479969D01*
X107590345Y-87540719D01*
X107495721Y-87635343D01*
X107495719Y-87635346D01*
X107433834Y-87756803D01*
X107385085Y-87808418D01*
X107321567Y-87825600D01*
X106334433Y-87825600D01*
X106266312Y-87805598D01*
X106222166Y-87756803D01*
X106167100Y-87648730D01*
X106160280Y-87635345D01*
X106065655Y-87540720D01*
X106065654Y-87540719D01*
X106006038Y-87510344D01*
X105946422Y-87479968D01*
X105847498Y-87464300D01*
X105268502Y-87464300D01*
X105169578Y-87479968D01*
X105169576Y-87479968D01*
X105169576Y-87479969D01*
X105050345Y-87540719D01*
X104955719Y-87635345D01*
X104895635Y-87753268D01*
X104894968Y-87754578D01*
X104879300Y-87853502D01*
X104879300Y-88357498D01*
X104894968Y-88456422D01*
X104894969Y-88456423D01*
X104955718Y-88575653D01*
X104955720Y-88575655D01*
X105050345Y-88670280D01*
X105169578Y-88731032D01*
X105268502Y-88746700D01*
X105268505Y-88746700D01*
X105847495Y-88746700D01*
X105847498Y-88746700D01*
X105946422Y-88731032D01*
X106065655Y-88670280D01*
X106160280Y-88575655D01*
X106211434Y-88475259D01*
X106222166Y-88454197D01*
X106270915Y-88402582D01*
X106334433Y-88385400D01*
X107321567Y-88385400D01*
X107389688Y-88405402D01*
X107433834Y-88454197D01*
X107459594Y-88504753D01*
X107495720Y-88575655D01*
X107590345Y-88670280D01*
X107709578Y-88731032D01*
X107808502Y-88746700D01*
X107808505Y-88746700D01*
X108387495Y-88746700D01*
X108387498Y-88746700D01*
X108486422Y-88731032D01*
X108523896Y-88711937D01*
X108593673Y-88698833D01*
X108659458Y-88725533D01*
X108700365Y-88783560D01*
X108707100Y-88824204D01*
X108707100Y-88961795D01*
X108687098Y-89029916D01*
X108633442Y-89076409D01*
X108563168Y-89086513D01*
X108523898Y-89074062D01*
X108486425Y-89054969D01*
X108486423Y-89054968D01*
X108486422Y-89054968D01*
X108387498Y-89039300D01*
X107808502Y-89039300D01*
X107709578Y-89054968D01*
X107709576Y-89054968D01*
X107709576Y-89054969D01*
X107590345Y-89115719D01*
X107495719Y-89210345D01*
X107459504Y-89281423D01*
X107434968Y-89329578D01*
X107419300Y-89428502D01*
X107419300Y-89932498D01*
X107434968Y-90031422D01*
X107434969Y-90031423D01*
X107488899Y-90137269D01*
X107495720Y-90150655D01*
X107590345Y-90245280D01*
X107709578Y-90306032D01*
X107808502Y-90321700D01*
X107808505Y-90321700D01*
X108387495Y-90321700D01*
X108387498Y-90321700D01*
X108486422Y-90306032D01*
X108523896Y-90286937D01*
X108593673Y-90273833D01*
X108659458Y-90300533D01*
X108700365Y-90358560D01*
X108707100Y-90399204D01*
X108707100Y-92466795D01*
X108687098Y-92534916D01*
X108633442Y-92581409D01*
X108563168Y-92591513D01*
X108523898Y-92579062D01*
X108486425Y-92559969D01*
X108486423Y-92559968D01*
X108486422Y-92559968D01*
X108387498Y-92544300D01*
X107808502Y-92544300D01*
X107709578Y-92559968D01*
X107709576Y-92559968D01*
X107709576Y-92559969D01*
X107590345Y-92620719D01*
X107495721Y-92715343D01*
X107495719Y-92715346D01*
X107433834Y-92836803D01*
X107385085Y-92888418D01*
X107321567Y-92905600D01*
X106334433Y-92905600D01*
X106266312Y-92885598D01*
X106222166Y-92836803D01*
X106167100Y-92728730D01*
X106160280Y-92715345D01*
X106065655Y-92620720D01*
X106065654Y-92620719D01*
X106006038Y-92590344D01*
X105946422Y-92559968D01*
X105847498Y-92544300D01*
X105268502Y-92544300D01*
X105169578Y-92559968D01*
X105169576Y-92559968D01*
X105169574Y-92559969D01*
X105132102Y-92579062D01*
X105062325Y-92592166D01*
X104996540Y-92565465D01*
X104955635Y-92507437D01*
X104948900Y-92466795D01*
X104948900Y-91275128D01*
X104968902Y-91207007D01*
X104985800Y-91186037D01*
X105781976Y-90389862D01*
X105788645Y-90378309D01*
X105840024Y-90329317D01*
X105878047Y-90316861D01*
X105946422Y-90306032D01*
X106065655Y-90245280D01*
X106160280Y-90150655D01*
X106221032Y-90031422D01*
X106236700Y-89932498D01*
X106236700Y-89428502D01*
X106221032Y-89329578D01*
X106160280Y-89210345D01*
X106065655Y-89115720D01*
X106065654Y-89115719D01*
X106006038Y-89085344D01*
X105946422Y-89054968D01*
X105847498Y-89039300D01*
X105268502Y-89039300D01*
X105169578Y-89054968D01*
X105169576Y-89054968D01*
X105169576Y-89054969D01*
X105050345Y-89115719D01*
X104955719Y-89210345D01*
X104919504Y-89281423D01*
X104894968Y-89329578D01*
X104879300Y-89428502D01*
X104879300Y-89932498D01*
X104894968Y-90031422D01*
X104894969Y-90031423D01*
X104955719Y-90150654D01*
X105003517Y-90198452D01*
X105037543Y-90260764D01*
X105032478Y-90331579D01*
X105003518Y-90376642D01*
X104782996Y-90597165D01*
X104720684Y-90631190D01*
X104649868Y-90626126D01*
X104593032Y-90583579D01*
X104568221Y-90517059D01*
X104567900Y-90508070D01*
X104567900Y-86576128D01*
X104587902Y-86508007D01*
X104604805Y-86487033D01*
X105781970Y-85309868D01*
X105781976Y-85309862D01*
X105788646Y-85298308D01*
X105840024Y-85249317D01*
X105878047Y-85236861D01*
X105946422Y-85226032D01*
X106065655Y-85165280D01*
X106160280Y-85070655D01*
X106221032Y-84951422D01*
X106236700Y-84852498D01*
X106236700Y-84348502D01*
X106221032Y-84249578D01*
X106160280Y-84130345D01*
X106065655Y-84035720D01*
X106065654Y-84035719D01*
X106006038Y-84005344D01*
X105946422Y-83974968D01*
X105847498Y-83959300D01*
X105268502Y-83959300D01*
X105169578Y-83974968D01*
X105169576Y-83974968D01*
X105169576Y-83974969D01*
X105050345Y-84035719D01*
X104955719Y-84130345D01*
X104919504Y-84201423D01*
X104894968Y-84249578D01*
X104879300Y-84348502D01*
X104879300Y-84852498D01*
X104894968Y-84951422D01*
X104895632Y-84952725D01*
X104955719Y-85070654D01*
X105003517Y-85118452D01*
X105037543Y-85180764D01*
X105032478Y-85251579D01*
X105003518Y-85296642D01*
X104401996Y-85898165D01*
X104339683Y-85932190D01*
X104268868Y-85927126D01*
X104212032Y-85884579D01*
X104187221Y-85818059D01*
X104186900Y-85809070D01*
X104186900Y-80662575D01*
X104191193Y-80629964D01*
X104191494Y-80628841D01*
X104212300Y-80551193D01*
X104212300Y-80434300D01*
X104232302Y-80366179D01*
X104285958Y-80319686D01*
X104338300Y-80308300D01*
X108555700Y-80308300D01*
X108623821Y-80328302D01*
G37*
G04 #@! TD.AperFunction*
G04 #@! TA.AperFunction,Conductor*
G36*
X113194472Y-80328302D02*
G01*
X113215446Y-80345205D01*
X113750195Y-80879954D01*
X113784221Y-80942266D01*
X113787100Y-80969049D01*
X113787100Y-82306795D01*
X113767098Y-82374916D01*
X113713442Y-82421409D01*
X113643168Y-82431513D01*
X113603898Y-82419062D01*
X113566425Y-82399969D01*
X113566423Y-82399968D01*
X113566422Y-82399968D01*
X113467498Y-82384300D01*
X112888502Y-82384300D01*
X112789578Y-82399968D01*
X112789576Y-82399968D01*
X112789576Y-82399969D01*
X112670345Y-82460719D01*
X112575721Y-82555343D01*
X112575719Y-82555346D01*
X112513834Y-82676803D01*
X112465085Y-82728418D01*
X112401567Y-82745600D01*
X111414433Y-82745600D01*
X111346312Y-82725598D01*
X111302166Y-82676803D01*
X111247100Y-82568730D01*
X111240280Y-82555345D01*
X111145655Y-82460720D01*
X111145654Y-82460719D01*
X111086038Y-82430344D01*
X111026422Y-82399968D01*
X110927498Y-82384300D01*
X110348502Y-82384300D01*
X110249578Y-82399968D01*
X110249576Y-82399968D01*
X110249576Y-82399969D01*
X110130345Y-82460719D01*
X110035719Y-82555345D01*
X109974969Y-82674576D01*
X109974968Y-82674578D01*
X109959300Y-82773502D01*
X109959300Y-83277498D01*
X109974968Y-83376422D01*
X109974969Y-83376423D01*
X110035718Y-83495653D01*
X110035720Y-83495655D01*
X110130345Y-83590280D01*
X110249578Y-83651032D01*
X110348502Y-83666700D01*
X110348505Y-83666700D01*
X110927495Y-83666700D01*
X110927498Y-83666700D01*
X111026422Y-83651032D01*
X111145655Y-83590280D01*
X111240280Y-83495655D01*
X111291434Y-83395259D01*
X111302166Y-83374197D01*
X111350915Y-83322582D01*
X111414433Y-83305400D01*
X112401567Y-83305400D01*
X112469688Y-83325402D01*
X112513834Y-83374197D01*
X112539594Y-83424753D01*
X112575720Y-83495655D01*
X112670345Y-83590280D01*
X112789578Y-83651032D01*
X112888502Y-83666700D01*
X112888505Y-83666700D01*
X113467495Y-83666700D01*
X113467498Y-83666700D01*
X113566422Y-83651032D01*
X113603896Y-83631937D01*
X113673673Y-83618833D01*
X113739458Y-83645533D01*
X113780365Y-83703560D01*
X113787100Y-83744204D01*
X113787100Y-83881795D01*
X113767098Y-83949916D01*
X113713442Y-83996409D01*
X113643168Y-84006513D01*
X113603898Y-83994062D01*
X113566425Y-83974969D01*
X113566423Y-83974968D01*
X113566422Y-83974968D01*
X113467498Y-83959300D01*
X112888502Y-83959300D01*
X112789578Y-83974968D01*
X112789576Y-83974968D01*
X112789576Y-83974969D01*
X112670345Y-84035719D01*
X112575719Y-84130345D01*
X112539504Y-84201423D01*
X112514968Y-84249578D01*
X112499300Y-84348502D01*
X112499300Y-84852498D01*
X112514968Y-84951422D01*
X112515632Y-84952725D01*
X112568899Y-85057269D01*
X112575720Y-85070655D01*
X112670345Y-85165280D01*
X112789578Y-85226032D01*
X112888502Y-85241700D01*
X112888505Y-85241700D01*
X113467495Y-85241700D01*
X113467498Y-85241700D01*
X113566422Y-85226032D01*
X113603896Y-85206937D01*
X113673673Y-85193833D01*
X113739458Y-85220533D01*
X113780365Y-85278560D01*
X113787100Y-85319204D01*
X113787100Y-87386795D01*
X113767098Y-87454916D01*
X113713442Y-87501409D01*
X113643168Y-87511513D01*
X113603898Y-87499062D01*
X113566425Y-87479969D01*
X113566423Y-87479968D01*
X113566422Y-87479968D01*
X113467498Y-87464300D01*
X112888502Y-87464300D01*
X112789578Y-87479968D01*
X112789576Y-87479968D01*
X112789576Y-87479969D01*
X112670345Y-87540719D01*
X112575721Y-87635343D01*
X112575719Y-87635346D01*
X112513834Y-87756803D01*
X112465085Y-87808418D01*
X112401567Y-87825600D01*
X111414433Y-87825600D01*
X111346312Y-87805598D01*
X111302166Y-87756803D01*
X111247100Y-87648730D01*
X111240280Y-87635345D01*
X111145655Y-87540720D01*
X111145654Y-87540719D01*
X111086038Y-87510344D01*
X111026422Y-87479968D01*
X110927498Y-87464300D01*
X110348502Y-87464300D01*
X110249578Y-87479968D01*
X110249576Y-87479968D01*
X110249576Y-87479969D01*
X110130345Y-87540719D01*
X110035719Y-87635345D01*
X109975635Y-87753268D01*
X109974968Y-87754578D01*
X109959300Y-87853502D01*
X109959300Y-88357498D01*
X109974968Y-88456422D01*
X109974969Y-88456423D01*
X110035718Y-88575653D01*
X110035720Y-88575655D01*
X110130345Y-88670280D01*
X110249578Y-88731032D01*
X110348502Y-88746700D01*
X110348505Y-88746700D01*
X110927495Y-88746700D01*
X110927498Y-88746700D01*
X111026422Y-88731032D01*
X111145655Y-88670280D01*
X111240280Y-88575655D01*
X111291434Y-88475259D01*
X111302166Y-88454197D01*
X111350915Y-88402582D01*
X111414433Y-88385400D01*
X112401567Y-88385400D01*
X112469688Y-88405402D01*
X112513834Y-88454197D01*
X112539594Y-88504753D01*
X112575720Y-88575655D01*
X112670345Y-88670280D01*
X112789578Y-88731032D01*
X112888502Y-88746700D01*
X112888505Y-88746700D01*
X113467495Y-88746700D01*
X113467498Y-88746700D01*
X113566422Y-88731032D01*
X113603896Y-88711937D01*
X113673673Y-88698833D01*
X113739458Y-88725533D01*
X113780365Y-88783560D01*
X113787100Y-88824204D01*
X113787100Y-88961795D01*
X113767098Y-89029916D01*
X113713442Y-89076409D01*
X113643168Y-89086513D01*
X113603898Y-89074062D01*
X113566425Y-89054969D01*
X113566423Y-89054968D01*
X113566422Y-89054968D01*
X113467498Y-89039300D01*
X112888502Y-89039300D01*
X112789578Y-89054968D01*
X112789576Y-89054968D01*
X112789576Y-89054969D01*
X112670345Y-89115719D01*
X112575719Y-89210345D01*
X112539504Y-89281423D01*
X112514968Y-89329578D01*
X112499300Y-89428502D01*
X112499300Y-89932498D01*
X112514968Y-90031422D01*
X112514969Y-90031423D01*
X112568899Y-90137269D01*
X112575720Y-90150655D01*
X112670345Y-90245280D01*
X112789578Y-90306032D01*
X112888502Y-90321700D01*
X112888505Y-90321700D01*
X113467495Y-90321700D01*
X113467498Y-90321700D01*
X113566422Y-90306032D01*
X113603896Y-90286937D01*
X113673673Y-90273833D01*
X113739458Y-90300533D01*
X113780365Y-90358560D01*
X113787100Y-90399204D01*
X113787100Y-92466795D01*
X113767098Y-92534916D01*
X113713442Y-92581409D01*
X113643168Y-92591513D01*
X113603898Y-92579062D01*
X113566425Y-92559969D01*
X113566423Y-92559968D01*
X113566422Y-92559968D01*
X113467498Y-92544300D01*
X112888502Y-92544300D01*
X112789578Y-92559968D01*
X112789576Y-92559968D01*
X112789576Y-92559969D01*
X112670345Y-92620719D01*
X112575721Y-92715343D01*
X112575719Y-92715346D01*
X112513834Y-92836803D01*
X112465085Y-92888418D01*
X112401567Y-92905600D01*
X111414433Y-92905600D01*
X111346312Y-92885598D01*
X111302166Y-92836803D01*
X111247100Y-92728730D01*
X111240280Y-92715345D01*
X111145655Y-92620720D01*
X111145654Y-92620719D01*
X111086038Y-92590344D01*
X111026422Y-92559968D01*
X110927498Y-92544300D01*
X110348502Y-92544300D01*
X110301610Y-92551727D01*
X110231199Y-92542627D01*
X110176885Y-92496905D01*
X110155913Y-92429076D01*
X110155900Y-92427278D01*
X110155900Y-91148128D01*
X110175902Y-91080007D01*
X110192800Y-91059037D01*
X110861976Y-90389862D01*
X110868645Y-90378309D01*
X110920024Y-90329317D01*
X110958047Y-90316861D01*
X111026422Y-90306032D01*
X111145655Y-90245280D01*
X111240280Y-90150655D01*
X111301032Y-90031422D01*
X111316700Y-89932498D01*
X111316700Y-89428502D01*
X111301032Y-89329578D01*
X111240280Y-89210345D01*
X111145655Y-89115720D01*
X111145654Y-89115719D01*
X111086038Y-89085344D01*
X111026422Y-89054968D01*
X110927498Y-89039300D01*
X110348502Y-89039300D01*
X110249578Y-89054968D01*
X110249576Y-89054968D01*
X110249576Y-89054969D01*
X110130345Y-89115719D01*
X110035719Y-89210345D01*
X109999504Y-89281423D01*
X109974968Y-89329578D01*
X109959300Y-89428502D01*
X109959300Y-89932498D01*
X109974968Y-90031422D01*
X109974969Y-90031423D01*
X110035719Y-90150654D01*
X110083517Y-90198452D01*
X110117543Y-90260764D01*
X110112478Y-90331579D01*
X110083518Y-90376642D01*
X109862996Y-90597165D01*
X109800684Y-90631190D01*
X109729868Y-90626126D01*
X109673032Y-90583579D01*
X109648221Y-90517059D01*
X109647900Y-90508070D01*
X109647900Y-86576128D01*
X109667902Y-86508007D01*
X109684805Y-86487033D01*
X110861970Y-85309868D01*
X110861976Y-85309862D01*
X110868646Y-85298308D01*
X110920024Y-85249317D01*
X110958047Y-85236861D01*
X111026422Y-85226032D01*
X111145655Y-85165280D01*
X111240280Y-85070655D01*
X111301032Y-84951422D01*
X111316700Y-84852498D01*
X111316700Y-84348502D01*
X111301032Y-84249578D01*
X111240280Y-84130345D01*
X111145655Y-84035720D01*
X111145654Y-84035719D01*
X111086038Y-84005344D01*
X111026422Y-83974968D01*
X110927498Y-83959300D01*
X110348502Y-83959300D01*
X110249578Y-83974968D01*
X110249576Y-83974968D01*
X110249576Y-83974969D01*
X110130345Y-84035719D01*
X110035719Y-84130345D01*
X109999504Y-84201423D01*
X109974968Y-84249578D01*
X109959300Y-84348502D01*
X109959300Y-84852498D01*
X109974968Y-84951422D01*
X109975632Y-84952725D01*
X110035719Y-85070654D01*
X110083517Y-85118452D01*
X110117543Y-85180764D01*
X110112478Y-85251579D01*
X110083518Y-85296642D01*
X109481996Y-85898165D01*
X109419683Y-85932190D01*
X109348868Y-85927126D01*
X109292032Y-85884579D01*
X109267221Y-85818059D01*
X109266900Y-85809070D01*
X109266900Y-80789575D01*
X109271193Y-80756964D01*
X109279809Y-80724809D01*
X109292300Y-80678193D01*
X109292300Y-80434300D01*
X109312302Y-80366179D01*
X109365958Y-80319686D01*
X109418300Y-80308300D01*
X113126351Y-80308300D01*
X113194472Y-80328302D01*
G37*
G04 #@! TD.AperFunction*
G04 #@! TA.AperFunction,Conductor*
G36*
X93383821Y-80328302D02*
G01*
X93430314Y-80381958D01*
X93441700Y-80434300D01*
X93441700Y-80551191D01*
X93441699Y-80551191D01*
X93462807Y-80629964D01*
X93467100Y-80662575D01*
X93467100Y-82306795D01*
X93447098Y-82374916D01*
X93393442Y-82421409D01*
X93323168Y-82431513D01*
X93283898Y-82419062D01*
X93246425Y-82399969D01*
X93246423Y-82399968D01*
X93246422Y-82399968D01*
X93147498Y-82384300D01*
X92568502Y-82384300D01*
X92469578Y-82399968D01*
X92469576Y-82399968D01*
X92469576Y-82399969D01*
X92350345Y-82460719D01*
X92255721Y-82555343D01*
X92255719Y-82555346D01*
X92193834Y-82676803D01*
X92145085Y-82728418D01*
X92081567Y-82745600D01*
X91094433Y-82745600D01*
X91026312Y-82725598D01*
X90982166Y-82676803D01*
X90927100Y-82568730D01*
X90920280Y-82555345D01*
X90825655Y-82460720D01*
X90825654Y-82460719D01*
X90766038Y-82430344D01*
X90706422Y-82399968D01*
X90607498Y-82384300D01*
X90028502Y-82384300D01*
X89929578Y-82399968D01*
X89929576Y-82399968D01*
X89929576Y-82399969D01*
X89810345Y-82460719D01*
X89715719Y-82555345D01*
X89654969Y-82674576D01*
X89654968Y-82674578D01*
X89639300Y-82773502D01*
X89639300Y-83277498D01*
X89654968Y-83376422D01*
X89654969Y-83376423D01*
X89715718Y-83495653D01*
X89715720Y-83495655D01*
X89810345Y-83590280D01*
X89929578Y-83651032D01*
X90028502Y-83666700D01*
X90028505Y-83666700D01*
X90607495Y-83666700D01*
X90607498Y-83666700D01*
X90706422Y-83651032D01*
X90825655Y-83590280D01*
X90920280Y-83495655D01*
X90971434Y-83395259D01*
X90982166Y-83374197D01*
X91030915Y-83322582D01*
X91094433Y-83305400D01*
X92081567Y-83305400D01*
X92149688Y-83325402D01*
X92193834Y-83374197D01*
X92219594Y-83424753D01*
X92255720Y-83495655D01*
X92350345Y-83590280D01*
X92469578Y-83651032D01*
X92568502Y-83666700D01*
X92568505Y-83666700D01*
X93147495Y-83666700D01*
X93147498Y-83666700D01*
X93246422Y-83651032D01*
X93283896Y-83631937D01*
X93353673Y-83618833D01*
X93419458Y-83645533D01*
X93460365Y-83703560D01*
X93467100Y-83744204D01*
X93467100Y-83881795D01*
X93447098Y-83949916D01*
X93393442Y-83996409D01*
X93323168Y-84006513D01*
X93283898Y-83994062D01*
X93246425Y-83974969D01*
X93246423Y-83974968D01*
X93246422Y-83974968D01*
X93147498Y-83959300D01*
X92568502Y-83959300D01*
X92469578Y-83974968D01*
X92469576Y-83974968D01*
X92469576Y-83974969D01*
X92350345Y-84035719D01*
X92255719Y-84130345D01*
X92219504Y-84201423D01*
X92194968Y-84249578D01*
X92179300Y-84348502D01*
X92179300Y-84852498D01*
X92194968Y-84951422D01*
X92195632Y-84952725D01*
X92248899Y-85057269D01*
X92255720Y-85070655D01*
X92350345Y-85165280D01*
X92469578Y-85226032D01*
X92568502Y-85241700D01*
X92568505Y-85241700D01*
X93147495Y-85241700D01*
X93147498Y-85241700D01*
X93246422Y-85226032D01*
X93283896Y-85206937D01*
X93353673Y-85193833D01*
X93419458Y-85220533D01*
X93460365Y-85278560D01*
X93467100Y-85319204D01*
X93467100Y-87386795D01*
X93447098Y-87454916D01*
X93393442Y-87501409D01*
X93323168Y-87511513D01*
X93283898Y-87499062D01*
X93246425Y-87479969D01*
X93246423Y-87479968D01*
X93246422Y-87479968D01*
X93147498Y-87464300D01*
X92568502Y-87464300D01*
X92469578Y-87479968D01*
X92469576Y-87479968D01*
X92469576Y-87479969D01*
X92350345Y-87540719D01*
X92255721Y-87635343D01*
X92255719Y-87635346D01*
X92193834Y-87756803D01*
X92145085Y-87808418D01*
X92081567Y-87825600D01*
X91094433Y-87825600D01*
X91026312Y-87805598D01*
X90982166Y-87756803D01*
X90927100Y-87648730D01*
X90920280Y-87635345D01*
X90825655Y-87540720D01*
X90825654Y-87540719D01*
X90766038Y-87510344D01*
X90706422Y-87479968D01*
X90607498Y-87464300D01*
X90028502Y-87464300D01*
X89929578Y-87479968D01*
X89929576Y-87479968D01*
X89929576Y-87479969D01*
X89810345Y-87540719D01*
X89810343Y-87540721D01*
X89796995Y-87554070D01*
X89734683Y-87588096D01*
X89663868Y-87583031D01*
X89607032Y-87540484D01*
X89582221Y-87473964D01*
X89581900Y-87464975D01*
X89581900Y-86322128D01*
X89601902Y-86254007D01*
X89618800Y-86233037D01*
X90541976Y-85309862D01*
X90548645Y-85298309D01*
X90600024Y-85249317D01*
X90638047Y-85236861D01*
X90706422Y-85226032D01*
X90825655Y-85165280D01*
X90920280Y-85070655D01*
X90981032Y-84951422D01*
X90996700Y-84852498D01*
X90996700Y-84348502D01*
X90981032Y-84249578D01*
X90920280Y-84130345D01*
X90825655Y-84035720D01*
X90825654Y-84035719D01*
X90766038Y-84005344D01*
X90706422Y-83974968D01*
X90607498Y-83959300D01*
X90028502Y-83959300D01*
X89929578Y-83974968D01*
X89929576Y-83974968D01*
X89929576Y-83974969D01*
X89810345Y-84035719D01*
X89715719Y-84130345D01*
X89679504Y-84201423D01*
X89654968Y-84249578D01*
X89639300Y-84348502D01*
X89639300Y-84852498D01*
X89654968Y-84951422D01*
X89655632Y-84952725D01*
X89715719Y-85070654D01*
X89763517Y-85118452D01*
X89797543Y-85180764D01*
X89792478Y-85251579D01*
X89763518Y-85296642D01*
X89130138Y-85930024D01*
X89130137Y-85930024D01*
X89078029Y-85982131D01*
X89078021Y-85982141D01*
X89041175Y-86045961D01*
X89041174Y-86045963D01*
X89022100Y-86117146D01*
X89022100Y-87386795D01*
X89002098Y-87454916D01*
X88948442Y-87501409D01*
X88878168Y-87511513D01*
X88838898Y-87499062D01*
X88801425Y-87479969D01*
X88801423Y-87479968D01*
X88801422Y-87479968D01*
X88702498Y-87464300D01*
X88123502Y-87464300D01*
X88024578Y-87479968D01*
X88024576Y-87479968D01*
X88024576Y-87479969D01*
X87905345Y-87540719D01*
X87810721Y-87635343D01*
X87810719Y-87635346D01*
X87748834Y-87756803D01*
X87700085Y-87808418D01*
X87636567Y-87825600D01*
X87090150Y-87825600D01*
X87081465Y-87827927D01*
X87034008Y-87840642D01*
X87034009Y-87840643D01*
X87018958Y-87844676D01*
X86955140Y-87881521D01*
X86955134Y-87881526D01*
X86742638Y-88094024D01*
X86742637Y-88094024D01*
X86690529Y-88146131D01*
X86690521Y-88146141D01*
X86680078Y-88164230D01*
X86628695Y-88213222D01*
X86590673Y-88225676D01*
X86563578Y-88229967D01*
X86444345Y-88290719D01*
X86349719Y-88385345D01*
X86298758Y-88485363D01*
X86288968Y-88504578D01*
X86273300Y-88603502D01*
X86273300Y-89182498D01*
X86288968Y-89281422D01*
X86349720Y-89400655D01*
X86444345Y-89495280D01*
X86563578Y-89556032D01*
X86662502Y-89571700D01*
X86662505Y-89571700D01*
X87166495Y-89571700D01*
X87166498Y-89571700D01*
X87265422Y-89556032D01*
X87384655Y-89495280D01*
X87479280Y-89400655D01*
X87496033Y-89367774D01*
X87544781Y-89316159D01*
X87613695Y-89299093D01*
X87680897Y-89321993D01*
X87725050Y-89377590D01*
X87734300Y-89424977D01*
X87734300Y-89428502D01*
X87734300Y-89932498D01*
X87749968Y-90031422D01*
X87749969Y-90031423D01*
X87810719Y-90150654D01*
X87836070Y-90176005D01*
X87870096Y-90238317D01*
X87865031Y-90309132D01*
X87822484Y-90365968D01*
X87755964Y-90390779D01*
X87746975Y-90391100D01*
X84820150Y-90391100D01*
X84811465Y-90393427D01*
X84764008Y-90406142D01*
X84764009Y-90406143D01*
X84748958Y-90410176D01*
X84685140Y-90447021D01*
X84685130Y-90447029D01*
X84462995Y-90669165D01*
X84400683Y-90703191D01*
X84329868Y-90698126D01*
X84273032Y-90655579D01*
X84248221Y-90589059D01*
X84247900Y-90580070D01*
X84247900Y-88603502D01*
X84698300Y-88603502D01*
X84698300Y-89182498D01*
X84713968Y-89281422D01*
X84774720Y-89400655D01*
X84869345Y-89495280D01*
X84988578Y-89556032D01*
X85087502Y-89571700D01*
X85087505Y-89571700D01*
X85591495Y-89571700D01*
X85591498Y-89571700D01*
X85690422Y-89556032D01*
X85809655Y-89495280D01*
X85904280Y-89400655D01*
X85965032Y-89281422D01*
X85980700Y-89182498D01*
X85980700Y-88603502D01*
X85965032Y-88504578D01*
X85904280Y-88385345D01*
X85809655Y-88290720D01*
X85809654Y-88290719D01*
X85746300Y-88258439D01*
X85690422Y-88229968D01*
X85649586Y-88223500D01*
X85585435Y-88193088D01*
X85547909Y-88132819D01*
X85543300Y-88099052D01*
X85543300Y-88016588D01*
X85563302Y-87948467D01*
X85574076Y-87934075D01*
X85627002Y-87872996D01*
X85681676Y-87753275D01*
X85698632Y-87635345D01*
X85700407Y-87623003D01*
X85700407Y-87622996D01*
X85681677Y-87492731D01*
X85681676Y-87492730D01*
X85681676Y-87492725D01*
X85627002Y-87373004D01*
X85540812Y-87273536D01*
X85540811Y-87273535D01*
X85485451Y-87237958D01*
X85430091Y-87202380D01*
X85303807Y-87165300D01*
X85172193Y-87165300D01*
X85045911Y-87202379D01*
X85045907Y-87202381D01*
X84935188Y-87273535D01*
X84848999Y-87373002D01*
X84794324Y-87492724D01*
X84794322Y-87492731D01*
X84775593Y-87622996D01*
X84775593Y-87623003D01*
X84794322Y-87753268D01*
X84794324Y-87753275D01*
X84848998Y-87872996D01*
X84901924Y-87934075D01*
X84931417Y-87998655D01*
X84932700Y-88016588D01*
X84932700Y-88181226D01*
X84912698Y-88249347D01*
X84875801Y-88282729D01*
X84877371Y-88284889D01*
X84869343Y-88290721D01*
X84774719Y-88385345D01*
X84723758Y-88485363D01*
X84713968Y-88504578D01*
X84698300Y-88603502D01*
X84247900Y-88603502D01*
X84247900Y-86648128D01*
X84267902Y-86580007D01*
X84284805Y-86559033D01*
X84809033Y-86034805D01*
X84871345Y-86000779D01*
X84898128Y-85997900D01*
X87869850Y-85997900D01*
X87941037Y-85978825D01*
X88004862Y-85941976D01*
X88636976Y-85309862D01*
X88643645Y-85298309D01*
X88695024Y-85249317D01*
X88733047Y-85236861D01*
X88801422Y-85226032D01*
X88920655Y-85165280D01*
X89015280Y-85070655D01*
X89076032Y-84951422D01*
X89091700Y-84852498D01*
X89091700Y-84348502D01*
X89076032Y-84249578D01*
X89015280Y-84130345D01*
X88920655Y-84035720D01*
X88920654Y-84035719D01*
X88861038Y-84005344D01*
X88801422Y-83974968D01*
X88702498Y-83959300D01*
X88123502Y-83959300D01*
X88024578Y-83974968D01*
X88024576Y-83974968D01*
X88024576Y-83974969D01*
X87905345Y-84035719D01*
X87810721Y-84130343D01*
X87810719Y-84130346D01*
X87793967Y-84163225D01*
X87745218Y-84214840D01*
X87676303Y-84231906D01*
X87609102Y-84209005D01*
X87564950Y-84153407D01*
X87555700Y-84106022D01*
X87555700Y-83519977D01*
X87575702Y-83451856D01*
X87629358Y-83405363D01*
X87699632Y-83395259D01*
X87764212Y-83424753D01*
X87793967Y-83462775D01*
X87803899Y-83482269D01*
X87810720Y-83495655D01*
X87905345Y-83590280D01*
X88024578Y-83651032D01*
X88123502Y-83666700D01*
X88123505Y-83666700D01*
X88702495Y-83666700D01*
X88702498Y-83666700D01*
X88801422Y-83651032D01*
X88920655Y-83590280D01*
X89015280Y-83495655D01*
X89076032Y-83376422D01*
X89091700Y-83277498D01*
X89091700Y-82773502D01*
X89076032Y-82674578D01*
X89015280Y-82555345D01*
X88920655Y-82460720D01*
X88920654Y-82460719D01*
X88861038Y-82430344D01*
X88801422Y-82399968D01*
X88702498Y-82384300D01*
X88123502Y-82384300D01*
X88024578Y-82399968D01*
X88024576Y-82399968D01*
X88024576Y-82399969D01*
X87905345Y-82460719D01*
X87810721Y-82555343D01*
X87810719Y-82555346D01*
X87748834Y-82676803D01*
X87700085Y-82728418D01*
X87636567Y-82745600D01*
X87090150Y-82745600D01*
X87081465Y-82747927D01*
X87034008Y-82760642D01*
X87034009Y-82760643D01*
X87018958Y-82764676D01*
X86955140Y-82801521D01*
X86955134Y-82801526D01*
X86742638Y-83014024D01*
X86742637Y-83014024D01*
X86690529Y-83066131D01*
X86690521Y-83066141D01*
X86680078Y-83084230D01*
X86628695Y-83133222D01*
X86590673Y-83145676D01*
X86563578Y-83149967D01*
X86444345Y-83210719D01*
X86349719Y-83305345D01*
X86298758Y-83405363D01*
X86288968Y-83424578D01*
X86273300Y-83523502D01*
X86273300Y-84102498D01*
X86288968Y-84201422D01*
X86349720Y-84320655D01*
X86444345Y-84415280D01*
X86563578Y-84476032D01*
X86662502Y-84491700D01*
X86662505Y-84491700D01*
X87166495Y-84491700D01*
X87166498Y-84491700D01*
X87265422Y-84476032D01*
X87384655Y-84415280D01*
X87479280Y-84320655D01*
X87496033Y-84287774D01*
X87544781Y-84236159D01*
X87613695Y-84219093D01*
X87680897Y-84241993D01*
X87725050Y-84297590D01*
X87734300Y-84344977D01*
X87734300Y-84348502D01*
X87734300Y-84852498D01*
X87749968Y-84951422D01*
X87750632Y-84952725D01*
X87810719Y-85070654D01*
X87858517Y-85118452D01*
X87892543Y-85180764D01*
X87887478Y-85251579D01*
X87858518Y-85296642D01*
X87753967Y-85401195D01*
X87691655Y-85435220D01*
X87664871Y-85438100D01*
X85775062Y-85438100D01*
X85706941Y-85418098D01*
X85660448Y-85364442D01*
X85650344Y-85294168D01*
X85660448Y-85259759D01*
X85675850Y-85226032D01*
X85681676Y-85213275D01*
X85684474Y-85193814D01*
X85700407Y-85083003D01*
X85700407Y-85082996D01*
X85681677Y-84952729D01*
X85681675Y-84952722D01*
X85656186Y-84896907D01*
X85644800Y-84844567D01*
X85644800Y-84576490D01*
X85664802Y-84508369D01*
X85713597Y-84464223D01*
X85809655Y-84415280D01*
X85904280Y-84320655D01*
X85965032Y-84201422D01*
X85980700Y-84102498D01*
X85980700Y-83523502D01*
X85965032Y-83424578D01*
X85904280Y-83305345D01*
X85809655Y-83210720D01*
X85713597Y-83161776D01*
X85661982Y-83113027D01*
X85644800Y-83049509D01*
X85644800Y-81096149D01*
X85664802Y-81028028D01*
X85681705Y-81007054D01*
X86343554Y-80345205D01*
X86405866Y-80311179D01*
X86432649Y-80308300D01*
X93315700Y-80308300D01*
X93383821Y-80328302D01*
G37*
G04 #@! TD.AperFunction*
G04 #@! TA.AperFunction,Conductor*
G36*
X94622410Y-74358502D02*
G01*
X94668903Y-74412158D01*
X94679007Y-74482432D01*
X94677869Y-74489077D01*
X94677300Y-74491935D01*
X94677300Y-75332064D01*
X94689118Y-75391479D01*
X94689119Y-75391480D01*
X94734140Y-75458860D01*
X94801520Y-75503881D01*
X94860936Y-75515700D01*
X94860941Y-75515700D01*
X95901059Y-75515700D01*
X95901064Y-75515700D01*
X95960480Y-75503881D01*
X96027860Y-75458860D01*
X96072881Y-75391480D01*
X96084700Y-75332064D01*
X96084700Y-74491936D01*
X96084131Y-74489075D01*
X96084267Y-74487551D01*
X96084093Y-74485780D01*
X96084429Y-74485746D01*
X96090462Y-74418364D01*
X96134018Y-74362298D01*
X96200971Y-74338680D01*
X96207711Y-74338500D01*
X101954289Y-74338500D01*
X102022410Y-74358502D01*
X102068903Y-74412158D01*
X102079007Y-74482432D01*
X102077869Y-74489077D01*
X102077300Y-74491935D01*
X102077300Y-75332064D01*
X102089118Y-75391479D01*
X102089119Y-75391480D01*
X102134140Y-75458860D01*
X102201520Y-75503881D01*
X102260936Y-75515700D01*
X102260941Y-75515700D01*
X103301059Y-75515700D01*
X103301064Y-75515700D01*
X103360480Y-75503881D01*
X103427860Y-75458860D01*
X103472881Y-75391480D01*
X103484700Y-75332064D01*
X103484700Y-74491936D01*
X103484131Y-74489075D01*
X103484267Y-74487551D01*
X103484093Y-74485780D01*
X103484429Y-74485746D01*
X103490462Y-74418364D01*
X103534018Y-74362298D01*
X103600971Y-74338680D01*
X103607711Y-74338500D01*
X113161592Y-74338500D01*
X113174194Y-74338500D01*
X113181801Y-74338730D01*
X113211324Y-74340515D01*
X113470479Y-74356191D01*
X113485560Y-74358022D01*
X113766288Y-74409467D01*
X113781035Y-74413102D01*
X114053525Y-74498013D01*
X114067737Y-74503404D01*
X114327976Y-74620528D01*
X114341447Y-74627598D01*
X114585682Y-74775244D01*
X114598193Y-74783879D01*
X114737948Y-74893370D01*
X114822845Y-74959882D01*
X114834234Y-74969972D01*
X115036027Y-75171765D01*
X115046117Y-75183154D01*
X115209328Y-75391479D01*
X115222116Y-75407801D01*
X115230759Y-75420322D01*
X115378400Y-75664550D01*
X115385471Y-75678023D01*
X115502593Y-75938257D01*
X115507989Y-75952483D01*
X115567609Y-76143811D01*
X115592893Y-76224948D01*
X115596534Y-76239722D01*
X115647975Y-76520427D01*
X115649809Y-76535531D01*
X115660775Y-76716824D01*
X115665318Y-76791935D01*
X115667270Y-76824197D01*
X115667500Y-76831805D01*
X115667500Y-126084194D01*
X115667270Y-126091802D01*
X115649809Y-126380468D01*
X115647975Y-126395572D01*
X115596534Y-126676277D01*
X115592893Y-126691051D01*
X115507989Y-126963516D01*
X115502593Y-126977742D01*
X115385471Y-127237976D01*
X115378400Y-127251449D01*
X115230759Y-127495677D01*
X115222116Y-127508198D01*
X115046117Y-127732845D01*
X115036027Y-127744234D01*
X114834234Y-127946027D01*
X114822845Y-127956117D01*
X114598198Y-128132116D01*
X114585677Y-128140759D01*
X114341449Y-128288400D01*
X114327976Y-128295471D01*
X114067742Y-128412593D01*
X114053516Y-128417989D01*
X113781051Y-128502893D01*
X113766277Y-128506534D01*
X113485572Y-128557975D01*
X113470468Y-128559809D01*
X113181802Y-128577270D01*
X113174194Y-128577500D01*
X85241806Y-128577500D01*
X85234198Y-128577270D01*
X84945531Y-128559809D01*
X84930427Y-128557975D01*
X84649722Y-128506534D01*
X84634952Y-128502894D01*
X84362483Y-128417989D01*
X84348257Y-128412593D01*
X84088023Y-128295471D01*
X84074550Y-128288400D01*
X83830322Y-128140759D01*
X83817801Y-128132116D01*
X83593154Y-127956117D01*
X83581765Y-127946027D01*
X83379972Y-127744234D01*
X83369882Y-127732845D01*
X83193879Y-127508193D01*
X83185244Y-127495682D01*
X83037598Y-127251447D01*
X83030528Y-127237976D01*
X82913406Y-126977742D01*
X82908013Y-126963525D01*
X82823102Y-126691035D01*
X82819467Y-126676288D01*
X82768022Y-126395560D01*
X82766191Y-126380479D01*
X82748730Y-126091801D01*
X82748500Y-126084194D01*
X82748500Y-125128000D01*
X91720137Y-125128000D01*
X91739551Y-125349897D01*
X91797201Y-125565053D01*
X91797203Y-125565058D01*
X91891337Y-125766931D01*
X91936030Y-125830757D01*
X92505675Y-125261111D01*
X92522755Y-125324853D01*
X92589898Y-125441147D01*
X92684853Y-125536102D01*
X92801147Y-125603245D01*
X92864885Y-125620323D01*
X92295241Y-126189967D01*
X92295241Y-126189969D01*
X92359069Y-126234662D01*
X92359068Y-126234662D01*
X92560941Y-126328796D01*
X92560946Y-126328798D01*
X92776102Y-126386448D01*
X92998000Y-126405862D01*
X93219897Y-126386448D01*
X93435053Y-126328798D01*
X93435058Y-126328796D01*
X93636931Y-126234662D01*
X93636932Y-126234661D01*
X93700757Y-126189969D01*
X93700757Y-126189968D01*
X93131113Y-125620323D01*
X93194853Y-125603245D01*
X93311147Y-125536102D01*
X93406102Y-125441147D01*
X93473245Y-125324853D01*
X93490323Y-125261112D01*
X94059968Y-125830757D01*
X94059969Y-125830757D01*
X94104661Y-125766932D01*
X94104662Y-125766931D01*
X94198796Y-125565058D01*
X94198798Y-125565053D01*
X94256448Y-125349897D01*
X94275862Y-125128000D01*
X94275862Y-125127996D01*
X104724613Y-125127996D01*
X104724613Y-125128003D01*
X104743314Y-125317890D01*
X104743316Y-125317901D01*
X104798705Y-125500493D01*
X104798707Y-125500498D01*
X104833215Y-125565058D01*
X104888658Y-125668785D01*
X105009711Y-125816289D01*
X105157215Y-125937342D01*
X105157217Y-125937343D01*
X105325501Y-126027292D01*
X105325506Y-126027294D01*
X105508098Y-126082683D01*
X105508099Y-126082683D01*
X105508102Y-126082684D01*
X105508105Y-126082684D01*
X105508109Y-126082685D01*
X105697997Y-126101387D01*
X105698000Y-126101387D01*
X105698003Y-126101387D01*
X105887890Y-126082685D01*
X105887892Y-126082684D01*
X105887898Y-126082684D01*
X105948765Y-126064220D01*
X106070493Y-126027294D01*
X106070494Y-126027293D01*
X106070499Y-126027292D01*
X106238785Y-125937342D01*
X106386289Y-125816289D01*
X106507342Y-125668785D01*
X106597292Y-125500499D01*
X106615297Y-125441147D01*
X106652683Y-125317901D01*
X106652685Y-125317890D01*
X106671387Y-125128003D01*
X106671387Y-125127996D01*
X106652685Y-124938109D01*
X106652683Y-124938098D01*
X106597294Y-124755506D01*
X106597292Y-124755501D01*
X106507343Y-124587217D01*
X106507342Y-124587215D01*
X106386289Y-124439711D01*
X106238785Y-124318658D01*
X106238783Y-124318657D01*
X106238782Y-124318656D01*
X106070498Y-124228707D01*
X106070493Y-124228705D01*
X105887901Y-124173316D01*
X105887890Y-124173314D01*
X105698003Y-124154613D01*
X105697997Y-124154613D01*
X105508109Y-124173314D01*
X105508098Y-124173316D01*
X105325506Y-124228705D01*
X105325501Y-124228707D01*
X105157217Y-124318656D01*
X105009711Y-124439711D01*
X104888656Y-124587217D01*
X104798707Y-124755501D01*
X104798705Y-124755506D01*
X104743316Y-124938098D01*
X104743314Y-124938109D01*
X104724613Y-125127996D01*
X94275862Y-125127996D01*
X94256448Y-124906102D01*
X94198798Y-124690946D01*
X94198796Y-124690941D01*
X94104661Y-124489068D01*
X94059969Y-124425241D01*
X94059967Y-124425241D01*
X93490323Y-124994885D01*
X93473245Y-124931147D01*
X93406102Y-124814853D01*
X93311147Y-124719898D01*
X93194853Y-124652755D01*
X93131112Y-124635676D01*
X93700757Y-124066030D01*
X93700757Y-124066029D01*
X93636930Y-124021337D01*
X93636931Y-124021337D01*
X93435058Y-123927203D01*
X93435053Y-123927201D01*
X93219897Y-123869551D01*
X92998000Y-123850137D01*
X92776102Y-123869551D01*
X92560946Y-123927201D01*
X92560942Y-123927203D01*
X92359067Y-124021339D01*
X92295240Y-124066030D01*
X92864886Y-124635676D01*
X92801147Y-124652755D01*
X92684853Y-124719898D01*
X92589898Y-124814853D01*
X92522755Y-124931147D01*
X92505676Y-124994886D01*
X91936030Y-124425240D01*
X91891339Y-124489067D01*
X91797203Y-124690942D01*
X91797201Y-124690946D01*
X91739551Y-124906102D01*
X91720137Y-125128000D01*
X82748500Y-125128000D01*
X82748500Y-116634000D01*
X94797572Y-116634000D01*
X94816445Y-116837674D01*
X94872420Y-117034405D01*
X94872421Y-117034407D01*
X94872422Y-117034410D01*
X94963596Y-117217512D01*
X94963597Y-117217513D01*
X95086858Y-117380739D01*
X95238023Y-117518545D01*
X95238024Y-117518546D01*
X95411919Y-117626217D01*
X95411922Y-117626218D01*
X95411931Y-117626224D01*
X95602664Y-117700114D01*
X95602667Y-117700115D01*
X95803716Y-117737698D01*
X95803727Y-117737700D01*
X95803731Y-117737700D01*
X96008269Y-117737700D01*
X96008273Y-117737700D01*
X96076877Y-117724875D01*
X96209332Y-117700115D01*
X96209333Y-117700114D01*
X96209336Y-117700114D01*
X96400069Y-117626224D01*
X96573977Y-117518545D01*
X96725138Y-117380743D01*
X96848404Y-117217512D01*
X96939578Y-117034410D01*
X96995555Y-116837673D01*
X97014428Y-116634000D01*
X100993174Y-116634000D01*
X101012444Y-116866549D01*
X101069724Y-117092743D01*
X101069726Y-117092747D01*
X101163455Y-117306427D01*
X101246796Y-117433990D01*
X101962666Y-116718122D01*
X101986667Y-116807694D01*
X102045910Y-116910306D01*
X102129694Y-116994090D01*
X102232306Y-117053333D01*
X102321875Y-117077333D01*
X101604680Y-117794528D01*
X101604680Y-117794529D01*
X101633251Y-117816767D01*
X101633259Y-117816772D01*
X101838474Y-117927827D01*
X101838477Y-117927829D01*
X102059167Y-118003592D01*
X102059176Y-118003594D01*
X102289334Y-118042000D01*
X102522666Y-118042000D01*
X102752823Y-118003594D01*
X102752832Y-118003592D01*
X102973522Y-117927829D01*
X102973525Y-117927827D01*
X103178741Y-117816771D01*
X103178750Y-117816765D01*
X103207318Y-117794529D01*
X103207319Y-117794528D01*
X102490124Y-117077333D01*
X102579694Y-117053333D01*
X102682306Y-116994090D01*
X102766090Y-116910306D01*
X102825333Y-116807694D01*
X102849333Y-116718124D01*
X103565200Y-117433991D01*
X103565202Y-117433991D01*
X103648544Y-117306427D01*
X103742273Y-117092747D01*
X103742275Y-117092743D01*
X103799555Y-116866549D01*
X103818825Y-116634000D01*
X103799555Y-116401450D01*
X103742275Y-116175256D01*
X103742273Y-116175252D01*
X103648544Y-115961572D01*
X103565201Y-115834007D01*
X102849333Y-116549875D01*
X102825333Y-116460306D01*
X102766090Y-116357694D01*
X102682306Y-116273910D01*
X102579694Y-116214667D01*
X102490123Y-116190666D01*
X103207318Y-115473470D01*
X103178740Y-115451227D01*
X102973525Y-115340172D01*
X102973522Y-115340170D01*
X102752832Y-115264407D01*
X102752823Y-115264405D01*
X102522666Y-115226000D01*
X102289334Y-115226000D01*
X102059176Y-115264405D01*
X102059167Y-115264407D01*
X101838477Y-115340170D01*
X101838474Y-115340172D01*
X101633258Y-115451227D01*
X101604680Y-115473469D01*
X101604680Y-115473471D01*
X102321875Y-116190666D01*
X102232306Y-116214667D01*
X102129694Y-116273910D01*
X102045910Y-116357694D01*
X101986667Y-116460306D01*
X101962666Y-116549875D01*
X101246798Y-115834007D01*
X101246797Y-115834007D01*
X101163459Y-115961566D01*
X101163452Y-115961578D01*
X101069726Y-116175252D01*
X101069724Y-116175256D01*
X101012444Y-116401450D01*
X100993174Y-116634000D01*
X97014428Y-116634000D01*
X96995555Y-116430327D01*
X96939578Y-116233590D01*
X96848404Y-116050488D01*
X96799097Y-115985195D01*
X96725141Y-115887260D01*
X96573976Y-115749454D01*
X96573975Y-115749453D01*
X96400080Y-115641782D01*
X96400073Y-115641778D01*
X96400069Y-115641776D01*
X96290148Y-115599192D01*
X96209332Y-115567884D01*
X96008283Y-115530301D01*
X96008275Y-115530300D01*
X96008273Y-115530300D01*
X95803727Y-115530300D01*
X95803724Y-115530300D01*
X95803716Y-115530301D01*
X95602667Y-115567884D01*
X95452337Y-115626122D01*
X95411931Y-115641776D01*
X95411930Y-115641776D01*
X95411929Y-115641777D01*
X95411919Y-115641782D01*
X95238024Y-115749453D01*
X95238023Y-115749454D01*
X95086858Y-115887260D01*
X94963597Y-116050486D01*
X94872420Y-116233594D01*
X94816445Y-116430325D01*
X94797572Y-116634000D01*
X82748500Y-116634000D01*
X82748500Y-112134000D01*
X94797572Y-112134000D01*
X94816445Y-112337674D01*
X94872420Y-112534405D01*
X94872421Y-112534407D01*
X94872422Y-112534410D01*
X94963596Y-112717512D01*
X94963597Y-112717513D01*
X95086858Y-112880739D01*
X95238023Y-113018545D01*
X95238024Y-113018546D01*
X95411919Y-113126217D01*
X95411922Y-113126218D01*
X95411931Y-113126224D01*
X95602664Y-113200114D01*
X95602667Y-113200115D01*
X95803716Y-113237698D01*
X95803727Y-113237700D01*
X95803731Y-113237700D01*
X96008269Y-113237700D01*
X96008273Y-113237700D01*
X96076877Y-113224875D01*
X96209332Y-113200115D01*
X96209333Y-113200114D01*
X96209336Y-113200114D01*
X96400069Y-113126224D01*
X96573977Y-113018545D01*
X96725138Y-112880743D01*
X96848404Y-112717512D01*
X96939578Y-112534410D01*
X96995555Y-112337673D01*
X97014428Y-112134000D01*
X101297572Y-112134000D01*
X101316445Y-112337674D01*
X101372420Y-112534405D01*
X101372421Y-112534407D01*
X101372422Y-112534410D01*
X101463596Y-112717512D01*
X101463597Y-112717513D01*
X101586858Y-112880739D01*
X101738023Y-113018545D01*
X101738024Y-113018546D01*
X101911919Y-113126217D01*
X101911922Y-113126218D01*
X101911931Y-113126224D01*
X102102664Y-113200114D01*
X102102667Y-113200115D01*
X102303716Y-113237698D01*
X102303727Y-113237700D01*
X102303731Y-113237700D01*
X102508269Y-113237700D01*
X102508273Y-113237700D01*
X102576877Y-113224875D01*
X102709332Y-113200115D01*
X102709333Y-113200114D01*
X102709336Y-113200114D01*
X102900069Y-113126224D01*
X103073977Y-113018545D01*
X103225138Y-112880743D01*
X103348404Y-112717512D01*
X103439578Y-112534410D01*
X103495555Y-112337673D01*
X103514428Y-112134000D01*
X103495555Y-111930327D01*
X103439578Y-111733590D01*
X103348404Y-111550488D01*
X103299097Y-111485195D01*
X103225141Y-111387260D01*
X103073976Y-111249454D01*
X103073975Y-111249453D01*
X102900080Y-111141782D01*
X102900073Y-111141778D01*
X102900069Y-111141776D01*
X102768195Y-111090688D01*
X102709332Y-111067884D01*
X102508283Y-111030301D01*
X102508275Y-111030300D01*
X102508273Y-111030300D01*
X102303727Y-111030300D01*
X102303724Y-111030300D01*
X102303716Y-111030301D01*
X102102667Y-111067884D01*
X101952337Y-111126122D01*
X101911931Y-111141776D01*
X101911930Y-111141776D01*
X101911929Y-111141777D01*
X101911919Y-111141782D01*
X101738024Y-111249453D01*
X101738023Y-111249454D01*
X101586858Y-111387260D01*
X101463597Y-111550486D01*
X101372420Y-111733594D01*
X101316445Y-111930325D01*
X101297572Y-112134000D01*
X97014428Y-112134000D01*
X96995555Y-111930327D01*
X96939578Y-111733590D01*
X96848404Y-111550488D01*
X96799097Y-111485195D01*
X96725141Y-111387260D01*
X96573976Y-111249454D01*
X96573975Y-111249453D01*
X96482149Y-111192597D01*
X96434761Y-111139731D01*
X96423478Y-111069636D01*
X96451882Y-111004569D01*
X96459378Y-110996380D01*
X96757556Y-110698204D01*
X96819868Y-110664179D01*
X96846651Y-110661300D01*
X98994191Y-110661300D01*
X98994193Y-110661300D01*
X99071841Y-110640494D01*
X99141459Y-110600300D01*
X100313554Y-109428205D01*
X100375866Y-109394180D01*
X100402649Y-109391300D01*
X100978415Y-109391300D01*
X101046536Y-109411302D01*
X101093029Y-109464958D01*
X101095890Y-109472306D01*
X101096967Y-109474421D01*
X101096968Y-109474422D01*
X101157720Y-109593655D01*
X101252345Y-109688280D01*
X101371578Y-109749032D01*
X101470502Y-109764700D01*
X101470505Y-109764700D01*
X101974495Y-109764700D01*
X101974498Y-109764700D01*
X102073422Y-109749032D01*
X102192655Y-109688280D01*
X102287280Y-109593655D01*
X102348032Y-109474422D01*
X102363700Y-109375498D01*
X102363700Y-108796502D01*
X102348032Y-108697578D01*
X102287280Y-108578345D01*
X102192655Y-108483720D01*
X102192654Y-108483719D01*
X102133038Y-108453344D01*
X102073422Y-108422968D01*
X101974498Y-108407300D01*
X101470502Y-108407300D01*
X101371578Y-108422968D01*
X101371576Y-108422968D01*
X101371576Y-108422969D01*
X101252345Y-108483719D01*
X101157719Y-108578345D01*
X101092466Y-108706414D01*
X101090276Y-108705298D01*
X101058166Y-108752249D01*
X100992767Y-108779880D01*
X100978415Y-108780700D01*
X100183806Y-108780700D01*
X100126963Y-108795931D01*
X100126962Y-108795930D01*
X100106163Y-108801504D01*
X100106152Y-108801508D01*
X100036542Y-108841698D01*
X100036539Y-108841700D01*
X98864446Y-110013795D01*
X98802134Y-110047820D01*
X98775351Y-110050700D01*
X96627807Y-110050700D01*
X96550159Y-110071506D01*
X96550158Y-110071506D01*
X96550156Y-110071507D01*
X96480542Y-110111698D01*
X96480540Y-110111699D01*
X95661702Y-110930538D01*
X95661697Y-110930544D01*
X95621504Y-111000161D01*
X95619988Y-111005820D01*
X95583030Y-111066439D01*
X95543801Y-111090688D01*
X95411935Y-111141774D01*
X95411919Y-111141782D01*
X95238024Y-111249453D01*
X95238023Y-111249454D01*
X95086858Y-111387260D01*
X94963597Y-111550486D01*
X94872420Y-111733594D01*
X94816445Y-111930325D01*
X94797572Y-112134000D01*
X82748500Y-112134000D01*
X82748500Y-86443146D01*
X83688100Y-86443146D01*
X83688100Y-103153853D01*
X83707174Y-103225036D01*
X83707175Y-103225038D01*
X83744021Y-103288858D01*
X83744029Y-103288868D01*
X89384130Y-108928970D01*
X89384135Y-108928974D01*
X89384137Y-108928976D01*
X89384138Y-108928977D01*
X89384140Y-108928978D01*
X89447958Y-108965823D01*
X89447962Y-108965825D01*
X89456673Y-108968159D01*
X89519150Y-108984900D01*
X97720850Y-108984900D01*
X97792037Y-108965825D01*
X97855862Y-108928976D01*
X99173976Y-107610863D01*
X99210825Y-107547038D01*
X99214855Y-107531993D01*
X99229900Y-107475850D01*
X99229900Y-106886928D01*
X99249902Y-106818807D01*
X99303558Y-106772314D01*
X99373832Y-106762210D01*
X99438412Y-106791704D01*
X99444995Y-106797833D01*
X99492024Y-106844862D01*
X99544138Y-106896976D01*
X99607963Y-106933825D01*
X99679150Y-106952900D01*
X108261850Y-106952900D01*
X108333037Y-106933825D01*
X108396862Y-106896976D01*
X110607976Y-104685862D01*
X110644825Y-104622037D01*
X110663900Y-104550850D01*
X110663900Y-104477150D01*
X110663900Y-96046128D01*
X110683902Y-95978007D01*
X110700800Y-95957037D01*
X110861976Y-95795862D01*
X110898825Y-95732038D01*
X110917900Y-95660850D01*
X110917900Y-95587150D01*
X110917900Y-95510833D01*
X110937902Y-95442712D01*
X110991558Y-95396219D01*
X111024189Y-95386385D01*
X111026422Y-95386032D01*
X111145655Y-95325280D01*
X111240280Y-95230655D01*
X111301032Y-95111422D01*
X111316700Y-95012498D01*
X111316700Y-94508502D01*
X111301032Y-94409578D01*
X111240280Y-94290345D01*
X111145655Y-94195720D01*
X111145654Y-94195719D01*
X111086038Y-94165344D01*
X111026422Y-94134968D01*
X110927498Y-94119300D01*
X110348502Y-94119300D01*
X110301610Y-94126727D01*
X110231199Y-94117627D01*
X110176885Y-94071905D01*
X110155913Y-94004076D01*
X110155900Y-94002278D01*
X110155900Y-93943721D01*
X110175902Y-93875600D01*
X110229558Y-93829107D01*
X110299832Y-93819003D01*
X110301557Y-93819264D01*
X110326688Y-93823245D01*
X110348500Y-93826700D01*
X110348502Y-93826700D01*
X110927495Y-93826700D01*
X110927498Y-93826700D01*
X111026422Y-93811032D01*
X111145655Y-93750280D01*
X111240280Y-93655655D01*
X111291434Y-93555259D01*
X111302166Y-93534197D01*
X111350915Y-93482582D01*
X111414433Y-93465400D01*
X112401567Y-93465400D01*
X112469688Y-93485402D01*
X112513834Y-93534197D01*
X112558967Y-93622775D01*
X112575720Y-93655655D01*
X112670345Y-93750280D01*
X112789578Y-93811032D01*
X112888502Y-93826700D01*
X112888505Y-93826700D01*
X113467495Y-93826700D01*
X113467498Y-93826700D01*
X113566422Y-93811032D01*
X113603896Y-93791937D01*
X113673673Y-93778833D01*
X113739458Y-93805533D01*
X113780365Y-93863560D01*
X113787100Y-93904204D01*
X113787100Y-94041795D01*
X113767098Y-94109916D01*
X113713442Y-94156409D01*
X113643168Y-94166513D01*
X113603898Y-94154062D01*
X113566425Y-94134969D01*
X113566423Y-94134968D01*
X113566422Y-94134968D01*
X113467498Y-94119300D01*
X112888502Y-94119300D01*
X112789578Y-94134968D01*
X112789576Y-94134968D01*
X112789576Y-94134969D01*
X112670345Y-94195719D01*
X112575719Y-94290345D01*
X112539504Y-94361423D01*
X112514968Y-94409578D01*
X112499300Y-94508502D01*
X112499300Y-95012498D01*
X112514968Y-95111422D01*
X112545344Y-95171038D01*
X112575718Y-95230653D01*
X112575720Y-95230655D01*
X112670345Y-95325280D01*
X112789578Y-95386032D01*
X112791805Y-95386384D01*
X112794296Y-95387565D01*
X112799005Y-95389095D01*
X112798807Y-95389703D01*
X112855957Y-95416790D01*
X112893488Y-95477056D01*
X112898100Y-95510833D01*
X112898100Y-96471872D01*
X112878098Y-96539993D01*
X112861195Y-96560967D01*
X111736138Y-97686024D01*
X111717077Y-97705085D01*
X111684025Y-97738136D01*
X111684021Y-97738141D01*
X111647175Y-97801961D01*
X111647174Y-97801963D01*
X111628100Y-97873146D01*
X111628100Y-104550853D01*
X111647174Y-104622036D01*
X111647175Y-104622038D01*
X111684021Y-104685858D01*
X111684023Y-104685860D01*
X111684024Y-104685862D01*
X112319024Y-105320862D01*
X112371138Y-105372976D01*
X112371139Y-105372977D01*
X112371141Y-105372978D01*
X112404132Y-105392025D01*
X112434963Y-105409825D01*
X112506150Y-105428900D01*
X112577012Y-105428900D01*
X112645133Y-105448902D01*
X112680708Y-105483323D01*
X112710944Y-105527127D01*
X112773263Y-105617412D01*
X112774406Y-105619067D01*
X112902317Y-105732387D01*
X112902321Y-105732389D01*
X112957654Y-105761430D01*
X113008677Y-105810798D01*
X113025100Y-105872998D01*
X113025100Y-108028872D01*
X113005098Y-108096993D01*
X112988195Y-108117967D01*
X112336967Y-108769195D01*
X112274655Y-108803221D01*
X112247872Y-108806100D01*
X104047834Y-108806100D01*
X103979713Y-108786098D01*
X103933220Y-108732442D01*
X103923386Y-108699817D01*
X103923032Y-108697578D01*
X103862280Y-108578345D01*
X103767655Y-108483720D01*
X103767654Y-108483719D01*
X103708038Y-108453344D01*
X103648422Y-108422968D01*
X103549498Y-108407300D01*
X103045502Y-108407300D01*
X102946578Y-108422968D01*
X102946576Y-108422968D01*
X102946576Y-108422969D01*
X102827345Y-108483719D01*
X102732719Y-108578345D01*
X102671969Y-108697576D01*
X102671968Y-108697578D01*
X102656300Y-108796502D01*
X102656300Y-109375498D01*
X102671968Y-109474422D01*
X102732720Y-109593655D01*
X102827345Y-109688280D01*
X102946578Y-109749032D01*
X103045502Y-109764700D01*
X103045505Y-109764700D01*
X103549495Y-109764700D01*
X103549498Y-109764700D01*
X103648422Y-109749032D01*
X103767655Y-109688280D01*
X103862280Y-109593655D01*
X103923032Y-109474422D01*
X103923386Y-109472185D01*
X103924570Y-109469687D01*
X103926095Y-109464995D01*
X103926701Y-109465192D01*
X103953798Y-109408035D01*
X104014067Y-109370509D01*
X104047834Y-109365900D01*
X112452850Y-109365900D01*
X112524037Y-109346825D01*
X112587862Y-109309976D01*
X113528976Y-108368862D01*
X113565825Y-108305037D01*
X113584900Y-108233850D01*
X113584900Y-108160150D01*
X113584900Y-105872998D01*
X113604902Y-105804877D01*
X113652346Y-105761430D01*
X113661429Y-105756662D01*
X113707683Y-105732387D01*
X113835595Y-105619066D01*
X113932671Y-105478427D01*
X113993270Y-105318643D01*
X113993270Y-105318642D01*
X113993271Y-105318640D01*
X114013868Y-105149002D01*
X114013868Y-105148997D01*
X113993271Y-104979359D01*
X113942777Y-104846221D01*
X113932671Y-104819573D01*
X113931693Y-104818156D01*
X113931298Y-104816958D01*
X113929129Y-104812826D01*
X113929816Y-104812465D01*
X113909455Y-104750735D01*
X113927198Y-104681991D01*
X113955453Y-104649177D01*
X114021212Y-104595210D01*
X114147175Y-104441724D01*
X114240775Y-104266612D01*
X114240776Y-104266610D01*
X114281307Y-104133000D01*
X113510618Y-104133000D01*
X113565064Y-104078554D01*
X113607851Y-104004445D01*
X113630000Y-103921787D01*
X113630000Y-103836213D01*
X113607851Y-103753555D01*
X113565064Y-103679446D01*
X113510618Y-103625000D01*
X114281307Y-103625000D01*
X114281307Y-103624999D01*
X114240776Y-103491389D01*
X114240775Y-103491387D01*
X114147175Y-103316275D01*
X114021211Y-103162788D01*
X113955452Y-103108821D01*
X113915484Y-103050144D01*
X113913583Y-102979173D01*
X113929217Y-102945220D01*
X113929129Y-102945174D01*
X113930025Y-102943465D01*
X113931694Y-102939841D01*
X113932671Y-102938427D01*
X113993270Y-102778643D01*
X113993270Y-102778642D01*
X113993271Y-102778640D01*
X114013868Y-102609002D01*
X114013868Y-102608997D01*
X113993271Y-102439359D01*
X113978290Y-102399858D01*
X113932671Y-102279573D01*
X113871637Y-102191150D01*
X113835596Y-102138935D01*
X113835594Y-102138933D01*
X113795000Y-102102970D01*
X113755878Y-102068311D01*
X113718154Y-102008169D01*
X113718934Y-101937176D01*
X113755878Y-101879688D01*
X113835595Y-101809066D01*
X113932671Y-101668427D01*
X113993270Y-101508643D01*
X113993270Y-101508642D01*
X113993271Y-101508640D01*
X114013868Y-101339002D01*
X114013868Y-101338997D01*
X113993271Y-101169359D01*
X113975253Y-101121850D01*
X113932671Y-101009573D01*
X113872646Y-100922612D01*
X113850411Y-100855190D01*
X113868158Y-100786447D01*
X113906340Y-100746274D01*
X113951860Y-100715860D01*
X113996881Y-100648480D01*
X114008700Y-100589064D01*
X114008700Y-99548936D01*
X113996881Y-99489520D01*
X113951860Y-99422140D01*
X113884480Y-99377119D01*
X113884479Y-99377118D01*
X113825064Y-99365300D01*
X112784936Y-99365300D01*
X112784935Y-99365300D01*
X112725520Y-99377118D01*
X112658140Y-99422140D01*
X112613118Y-99489520D01*
X112601300Y-99548935D01*
X112601300Y-100589064D01*
X112613118Y-100648479D01*
X112622735Y-100662872D01*
X112658140Y-100715860D01*
X112703654Y-100746271D01*
X112703656Y-100746272D01*
X112749185Y-100800748D01*
X112758034Y-100871191D01*
X112737352Y-100922614D01*
X112677331Y-101009569D01*
X112677328Y-101009575D01*
X112616728Y-101169359D01*
X112596132Y-101338997D01*
X112596132Y-101339002D01*
X112616728Y-101508640D01*
X112677328Y-101668424D01*
X112677331Y-101668430D01*
X112774403Y-101809064D01*
X112774406Y-101809067D01*
X112854120Y-101879688D01*
X112891845Y-101939832D01*
X112891065Y-102010825D01*
X112854120Y-102068312D01*
X112774406Y-102138932D01*
X112774403Y-102138935D01*
X112677331Y-102279569D01*
X112677328Y-102279575D01*
X112616728Y-102439359D01*
X112596132Y-102608997D01*
X112596132Y-102609002D01*
X112616728Y-102778640D01*
X112653459Y-102875489D01*
X112677329Y-102938427D01*
X112678307Y-102939844D01*
X112678702Y-102941042D01*
X112680871Y-102945174D01*
X112680184Y-102945534D01*
X112700544Y-103007267D01*
X112682799Y-103076011D01*
X112654547Y-103108821D01*
X112588788Y-103162788D01*
X112462824Y-103316275D01*
X112425022Y-103386998D01*
X112375269Y-103437646D01*
X112306033Y-103453356D01*
X112239294Y-103429140D01*
X112196242Y-103372686D01*
X112187900Y-103327602D01*
X112187900Y-98078128D01*
X112207902Y-98010007D01*
X112224805Y-97989033D01*
X113401970Y-96811868D01*
X113401976Y-96811862D01*
X113438825Y-96748038D01*
X113457900Y-96676850D01*
X113457900Y-96603150D01*
X113457900Y-95510833D01*
X113477902Y-95442712D01*
X113531558Y-95396219D01*
X113564189Y-95386385D01*
X113566422Y-95386032D01*
X113685655Y-95325280D01*
X113780280Y-95230655D01*
X113841032Y-95111422D01*
X113845322Y-95084332D01*
X113875732Y-95020179D01*
X113906769Y-94994921D01*
X113924862Y-94984476D01*
X114290976Y-94618362D01*
X114327825Y-94554537D01*
X114346900Y-94483350D01*
X114346900Y-94409650D01*
X114346900Y-89618150D01*
X114346900Y-84538150D01*
X114346900Y-80916573D01*
X114351193Y-80883962D01*
X114351492Y-80882844D01*
X114351494Y-80882842D01*
X114372299Y-80805194D01*
X114372299Y-80724807D01*
X114351494Y-80647159D01*
X114311301Y-80577541D01*
X113492459Y-79758700D01*
X113492456Y-79758698D01*
X113492455Y-79758697D01*
X113422841Y-79718506D01*
X113402031Y-79712930D01*
X113345193Y-79697700D01*
X113345191Y-79697700D01*
X98762300Y-79697700D01*
X98694179Y-79677698D01*
X98647686Y-79624042D01*
X98636300Y-79571700D01*
X98636300Y-78631987D01*
X98656302Y-78563866D01*
X98709958Y-78517373D01*
X98737719Y-78508408D01*
X98760480Y-78503881D01*
X98827860Y-78458860D01*
X98872881Y-78391480D01*
X98884700Y-78332064D01*
X98884700Y-76791936D01*
X98872881Y-76732520D01*
X98827860Y-76665140D01*
X98782838Y-76635057D01*
X98760479Y-76620118D01*
X98701064Y-76608300D01*
X98065485Y-76608300D01*
X97997364Y-76588298D01*
X97950871Y-76534642D01*
X97940767Y-76464368D01*
X97970261Y-76399788D01*
X97995481Y-76377536D01*
X98027542Y-76356114D01*
X98125114Y-76258542D01*
X98201775Y-76143811D01*
X98254580Y-76016328D01*
X98281500Y-75880993D01*
X98281500Y-75743007D01*
X98281499Y-75743004D01*
X99880500Y-75743004D01*
X99880500Y-75880995D01*
X99893274Y-75945211D01*
X99907420Y-76016328D01*
X99960225Y-76143811D01*
X99974477Y-76165140D01*
X100036885Y-76258541D01*
X100036890Y-76258547D01*
X100134452Y-76356109D01*
X100134456Y-76356112D01*
X100134458Y-76356114D01*
X100249189Y-76432775D01*
X100376672Y-76485580D01*
X100512007Y-76512500D01*
X100512008Y-76512500D01*
X100649992Y-76512500D01*
X100649993Y-76512500D01*
X100681644Y-76506204D01*
X100752357Y-76512532D01*
X100808425Y-76556085D01*
X100832045Y-76623038D01*
X100815719Y-76692131D01*
X100810992Y-76699784D01*
X100789118Y-76732520D01*
X100777300Y-76791935D01*
X100777300Y-78332064D01*
X100789118Y-78391479D01*
X100797252Y-78403652D01*
X100834140Y-78458860D01*
X100901520Y-78503881D01*
X100941265Y-78511787D01*
X101004173Y-78544692D01*
X101038390Y-78602752D01*
X101046224Y-78631987D01*
X101046506Y-78633041D01*
X101086697Y-78702655D01*
X101086699Y-78702657D01*
X101086700Y-78702659D01*
X101488341Y-79104301D01*
X101557959Y-79144494D01*
X101635607Y-79165300D01*
X102492377Y-79165300D01*
X102560498Y-79185302D01*
X102587597Y-79208782D01*
X102588188Y-79209464D01*
X102698909Y-79280620D01*
X102825193Y-79317700D01*
X102956807Y-79317700D01*
X103083091Y-79280620D01*
X103193812Y-79209464D01*
X103280002Y-79109996D01*
X103334676Y-78990275D01*
X103353407Y-78860000D01*
X103353407Y-78859996D01*
X103334677Y-78729731D01*
X103334676Y-78729730D01*
X103334676Y-78729725D01*
X103280002Y-78610004D01*
X103193812Y-78510536D01*
X103193811Y-78510535D01*
X103113401Y-78458859D01*
X103083091Y-78439380D01*
X102956807Y-78402300D01*
X102825193Y-78402300D01*
X102698911Y-78439379D01*
X102698907Y-78439381D01*
X102588188Y-78510535D01*
X102587598Y-78511217D01*
X102586839Y-78511704D01*
X102581379Y-78516436D01*
X102580698Y-78515650D01*
X102527870Y-78549598D01*
X102492377Y-78554700D01*
X101993846Y-78554700D01*
X101925725Y-78534698D01*
X101879232Y-78481042D01*
X101869128Y-78410768D01*
X101871045Y-78403768D01*
X101870460Y-78403652D01*
X101873289Y-78389428D01*
X101884700Y-78332064D01*
X101884700Y-77300912D01*
X101904702Y-77232791D01*
X101958358Y-77186298D01*
X102028632Y-77176194D01*
X102093212Y-77205688D01*
X102115466Y-77230912D01*
X102116721Y-77232791D01*
X102134140Y-77258860D01*
X102201520Y-77303881D01*
X102260936Y-77315700D01*
X102260941Y-77315700D01*
X103301059Y-77315700D01*
X103301064Y-77315700D01*
X103360480Y-77303881D01*
X103427860Y-77258860D01*
X103472881Y-77191480D01*
X103484700Y-77132064D01*
X103484700Y-76291936D01*
X103472881Y-76232520D01*
X103427860Y-76165140D01*
X103360480Y-76120119D01*
X103360479Y-76120118D01*
X103301064Y-76108300D01*
X102260936Y-76108300D01*
X102260935Y-76108300D01*
X102201520Y-76120118D01*
X102134140Y-76165140D01*
X102089118Y-76232520D01*
X102077300Y-76291935D01*
X102077300Y-76623087D01*
X102057298Y-76691208D01*
X102003642Y-76737701D01*
X101933368Y-76747805D01*
X101868788Y-76718311D01*
X101846535Y-76693088D01*
X101827861Y-76665141D01*
X101760479Y-76620118D01*
X101701064Y-76608300D01*
X101065485Y-76608300D01*
X100997364Y-76588298D01*
X100950871Y-76534642D01*
X100940767Y-76464368D01*
X100970261Y-76399788D01*
X100995481Y-76377536D01*
X101027542Y-76356114D01*
X101125114Y-76258542D01*
X101201775Y-76143811D01*
X101254580Y-76016328D01*
X101281500Y-75880993D01*
X101281500Y-75743007D01*
X101254580Y-75607672D01*
X101201775Y-75480189D01*
X101125114Y-75365458D01*
X101125109Y-75365452D01*
X101027547Y-75267890D01*
X101027541Y-75267885D01*
X100989471Y-75242447D01*
X100912811Y-75191225D01*
X100832421Y-75157926D01*
X100785331Y-75138421D01*
X100785328Y-75138420D01*
X100649995Y-75111500D01*
X100649993Y-75111500D01*
X100512007Y-75111500D01*
X100512004Y-75111500D01*
X100376671Y-75138420D01*
X100376668Y-75138421D01*
X100249189Y-75191225D01*
X100134458Y-75267885D01*
X100134452Y-75267890D01*
X100036890Y-75365452D01*
X100036885Y-75365458D01*
X99960225Y-75480189D01*
X99907421Y-75607668D01*
X99907420Y-75607671D01*
X99880500Y-75743004D01*
X98281499Y-75743004D01*
X98254580Y-75607672D01*
X98201775Y-75480189D01*
X98125114Y-75365458D01*
X98125109Y-75365452D01*
X98027547Y-75267890D01*
X98027541Y-75267885D01*
X97989471Y-75242447D01*
X97912811Y-75191225D01*
X97832421Y-75157926D01*
X97785331Y-75138421D01*
X97785328Y-75138420D01*
X97649995Y-75111500D01*
X97649993Y-75111500D01*
X97512007Y-75111500D01*
X97512004Y-75111500D01*
X97376671Y-75138420D01*
X97376668Y-75138421D01*
X97249189Y-75191225D01*
X97134458Y-75267885D01*
X97134452Y-75267890D01*
X97036890Y-75365452D01*
X97036885Y-75365458D01*
X96960225Y-75480189D01*
X96907421Y-75607668D01*
X96907420Y-75607671D01*
X96880500Y-75743004D01*
X96880500Y-75880995D01*
X96893274Y-75945211D01*
X96907420Y-76016328D01*
X96960225Y-76143811D01*
X96974477Y-76165140D01*
X97036885Y-76258541D01*
X97036890Y-76258547D01*
X97134452Y-76356109D01*
X97134456Y-76356112D01*
X97134458Y-76356114D01*
X97166516Y-76377535D01*
X97212044Y-76432011D01*
X97220893Y-76502454D01*
X97190252Y-76566499D01*
X97129850Y-76603810D01*
X97096515Y-76608300D01*
X96460935Y-76608300D01*
X96401520Y-76620118D01*
X96334138Y-76665141D01*
X96315465Y-76693088D01*
X96260989Y-76738616D01*
X96190546Y-76747465D01*
X96126501Y-76716824D01*
X96089190Y-76656422D01*
X96084700Y-76623087D01*
X96084700Y-76291940D01*
X96084700Y-76291936D01*
X96072881Y-76232520D01*
X96027860Y-76165140D01*
X95960480Y-76120119D01*
X95960479Y-76120118D01*
X95901064Y-76108300D01*
X94860936Y-76108300D01*
X94860935Y-76108300D01*
X94801520Y-76120118D01*
X94734140Y-76165140D01*
X94689118Y-76232520D01*
X94677300Y-76291935D01*
X94677300Y-77132064D01*
X94689118Y-77191479D01*
X94689119Y-77191480D01*
X94734140Y-77258860D01*
X94801520Y-77303881D01*
X94860936Y-77315700D01*
X94860941Y-77315700D01*
X95901059Y-77315700D01*
X95901064Y-77315700D01*
X95960480Y-77303881D01*
X96027860Y-77258860D01*
X96046534Y-77230912D01*
X96101010Y-77185383D01*
X96171453Y-77176534D01*
X96235498Y-77207174D01*
X96272810Y-77267575D01*
X96277300Y-77300912D01*
X96277300Y-78332064D01*
X96289118Y-78391479D01*
X96297252Y-78403652D01*
X96334140Y-78458860D01*
X96401520Y-78503881D01*
X96460936Y-78515700D01*
X96460941Y-78515700D01*
X97201059Y-78515700D01*
X97201064Y-78515700D01*
X97260480Y-78503881D01*
X97327860Y-78458860D01*
X97372881Y-78391480D01*
X97384700Y-78332064D01*
X97384700Y-76791936D01*
X97372881Y-76732520D01*
X97351007Y-76699783D01*
X97329793Y-76632032D01*
X97348576Y-76563565D01*
X97401393Y-76516122D01*
X97471475Y-76504765D01*
X97480355Y-76506204D01*
X97512007Y-76512500D01*
X97512008Y-76512500D01*
X97649992Y-76512500D01*
X97649993Y-76512500D01*
X97681644Y-76506204D01*
X97752357Y-76512532D01*
X97808425Y-76556085D01*
X97832045Y-76623038D01*
X97815719Y-76692131D01*
X97810992Y-76699784D01*
X97789118Y-76732520D01*
X97777300Y-76791935D01*
X97777300Y-78332064D01*
X97789118Y-78391479D01*
X97797252Y-78403652D01*
X97834140Y-78458860D01*
X97901520Y-78503881D01*
X97924279Y-78508408D01*
X97987189Y-78541314D01*
X98022322Y-78603008D01*
X98025700Y-78631987D01*
X98025700Y-79571700D01*
X98005698Y-79639821D01*
X97952042Y-79686314D01*
X97899700Y-79697700D01*
X86213806Y-79697700D01*
X86156963Y-79712931D01*
X86156962Y-79712930D01*
X86136163Y-79718504D01*
X86136152Y-79718508D01*
X86066542Y-79758698D01*
X86066539Y-79758700D01*
X85095205Y-80730034D01*
X85095200Y-80730041D01*
X85060829Y-80789575D01*
X85057416Y-80795486D01*
X85057411Y-80795494D01*
X85055007Y-80799655D01*
X85055005Y-80799662D01*
X85034200Y-80877308D01*
X85034200Y-83049509D01*
X85014198Y-83117630D01*
X84965403Y-83161776D01*
X84869346Y-83210719D01*
X84869343Y-83210721D01*
X84774719Y-83305345D01*
X84723758Y-83405363D01*
X84713968Y-83424578D01*
X84698300Y-83523502D01*
X84698300Y-84102498D01*
X84713968Y-84201422D01*
X84774720Y-84320655D01*
X84869345Y-84415280D01*
X84965402Y-84464223D01*
X85017018Y-84512971D01*
X85034200Y-84576490D01*
X85034200Y-84601103D01*
X85014198Y-84669224D01*
X84976321Y-84707101D01*
X84935188Y-84733535D01*
X84848999Y-84833002D01*
X84794324Y-84952724D01*
X84794322Y-84952731D01*
X84775593Y-85082996D01*
X84775593Y-85083003D01*
X84794322Y-85213268D01*
X84794325Y-85213278D01*
X84815552Y-85259759D01*
X84825655Y-85330033D01*
X84796162Y-85394613D01*
X84736435Y-85432996D01*
X84700938Y-85438100D01*
X84693146Y-85438100D01*
X84621963Y-85457174D01*
X84621961Y-85457175D01*
X84558141Y-85494021D01*
X84558135Y-85494026D01*
X84243092Y-85809070D01*
X83796138Y-86256024D01*
X83782224Y-86269938D01*
X83744025Y-86308136D01*
X83744021Y-86308141D01*
X83707175Y-86371961D01*
X83707174Y-86371963D01*
X83688100Y-86443146D01*
X82748500Y-86443146D01*
X82748500Y-76831805D01*
X82748730Y-76824198D01*
X82750681Y-76791936D01*
X82766191Y-76535518D01*
X82768022Y-76520441D01*
X82819468Y-76239707D01*
X82823101Y-76224967D01*
X82908015Y-75952468D01*
X82913402Y-75938267D01*
X83030532Y-75678014D01*
X83037594Y-75664558D01*
X83185248Y-75420308D01*
X83193873Y-75407814D01*
X83369889Y-75183145D01*
X83379964Y-75171773D01*
X83581773Y-74969964D01*
X83593145Y-74959889D01*
X83817814Y-74783873D01*
X83830308Y-74775248D01*
X84074558Y-74627594D01*
X84088014Y-74620532D01*
X84348267Y-74503402D01*
X84362468Y-74498015D01*
X84634967Y-74413101D01*
X84649707Y-74409468D01*
X84930441Y-74358022D01*
X84945518Y-74356191D01*
X85206676Y-74340394D01*
X85234199Y-74338730D01*
X85241806Y-74338500D01*
X85254408Y-74338500D01*
X94554289Y-74338500D01*
X94622410Y-74358502D01*
G37*
G04 #@! TD.AperFunction*
M02*
