G04 #@! TF.GenerationSoftware,KiCad,Pcbnew,8.0.2*
G04 #@! TF.CreationDate,2024-10-23T21:54:29-05:00*
G04 #@! TF.ProjectId,SAMC21_breakout,53414d43-3231-45f6-9272-65616b6f7574,rev?*
G04 #@! TF.SameCoordinates,Original*
G04 #@! TF.FileFunction,Soldermask,Bot*
G04 #@! TF.FilePolarity,Negative*
%FSLAX46Y46*%
G04 Gerber Fmt 4.6, Leading zero omitted, Abs format (unit mm)*
G04 Created by KiCad (PCBNEW 8.0.2) date 2024-10-23 21:54:29*
%MOMM*%
%LPD*%
G01*
G04 APERTURE LIST*
G04 APERTURE END LIST*
G36*
X93265918Y-124303434D02*
G01*
X93431500Y-124377156D01*
X93578136Y-124483693D01*
X93699418Y-124618390D01*
X93790044Y-124775359D01*
X93846054Y-124947741D01*
X93865000Y-125128000D01*
X93846054Y-125308259D01*
X93790044Y-125480641D01*
X93699418Y-125637610D01*
X93578136Y-125772307D01*
X93431500Y-125878844D01*
X93265918Y-125952566D01*
X93088626Y-125990250D01*
X92907374Y-125990250D01*
X92730082Y-125952566D01*
X92564500Y-125878844D01*
X92417864Y-125772307D01*
X92296582Y-125637610D01*
X92205956Y-125480641D01*
X92149946Y-125308259D01*
X92131000Y-125128000D01*
X92149946Y-124947741D01*
X92205956Y-124775359D01*
X92296582Y-124618390D01*
X92417864Y-124483693D01*
X92564500Y-124377156D01*
X92730082Y-124303434D01*
X92907374Y-124265750D01*
X93088626Y-124265750D01*
X93265918Y-124303434D01*
G37*
G36*
X105965918Y-124303434D02*
G01*
X106131500Y-124377156D01*
X106278136Y-124483693D01*
X106399418Y-124618390D01*
X106490044Y-124775359D01*
X106546054Y-124947741D01*
X106565000Y-125128000D01*
X106546054Y-125308259D01*
X106490044Y-125480641D01*
X106399418Y-125637610D01*
X106278136Y-125772307D01*
X106131500Y-125878844D01*
X105965918Y-125952566D01*
X105788626Y-125990250D01*
X105607374Y-125990250D01*
X105430082Y-125952566D01*
X105264500Y-125878844D01*
X105117864Y-125772307D01*
X104996582Y-125637610D01*
X104905956Y-125480641D01*
X104849946Y-125308259D01*
X104831000Y-125128000D01*
X104849946Y-124947741D01*
X104905956Y-124775359D01*
X104996582Y-124618390D01*
X105117864Y-124483693D01*
X105264500Y-124377156D01*
X105430082Y-124303434D01*
X105607374Y-124265750D01*
X105788626Y-124265750D01*
X105965918Y-124303434D01*
G37*
G36*
X96184115Y-115778049D02*
G01*
X96356000Y-115854577D01*
X96508218Y-115965170D01*
X96634115Y-116104993D01*
X96728191Y-116267937D01*
X96786333Y-116446879D01*
X96806000Y-116634000D01*
X96786333Y-116821121D01*
X96728191Y-117000063D01*
X96634115Y-117163007D01*
X96508218Y-117302830D01*
X96356000Y-117413423D01*
X96184115Y-117489951D01*
X96000076Y-117529070D01*
X95811924Y-117529070D01*
X95627885Y-117489951D01*
X95456000Y-117413423D01*
X95303782Y-117302830D01*
X95177885Y-117163007D01*
X95083809Y-117000063D01*
X95025667Y-116821121D01*
X95006000Y-116634000D01*
X95025667Y-116446879D01*
X95083809Y-116267937D01*
X95177885Y-116104993D01*
X95303782Y-115965170D01*
X95456000Y-115854577D01*
X95627885Y-115778049D01*
X95811924Y-115738930D01*
X96000076Y-115738930D01*
X96184115Y-115778049D01*
G37*
G36*
X102684115Y-115778049D02*
G01*
X102856000Y-115854577D01*
X103008218Y-115965170D01*
X103134115Y-116104993D01*
X103228191Y-116267937D01*
X103286333Y-116446879D01*
X103306000Y-116634000D01*
X103286333Y-116821121D01*
X103228191Y-117000063D01*
X103134115Y-117163007D01*
X103008218Y-117302830D01*
X102856000Y-117413423D01*
X102684115Y-117489951D01*
X102500076Y-117529070D01*
X102311924Y-117529070D01*
X102127885Y-117489951D01*
X101956000Y-117413423D01*
X101803782Y-117302830D01*
X101677885Y-117163007D01*
X101583809Y-117000063D01*
X101525667Y-116821121D01*
X101506000Y-116634000D01*
X101525667Y-116446879D01*
X101583809Y-116267937D01*
X101677885Y-116104993D01*
X101803782Y-115965170D01*
X101956000Y-115854577D01*
X102127885Y-115778049D01*
X102311924Y-115738930D01*
X102500076Y-115738930D01*
X102684115Y-115778049D01*
G37*
G36*
X96184115Y-111278049D02*
G01*
X96356000Y-111354577D01*
X96508218Y-111465170D01*
X96634115Y-111604993D01*
X96728191Y-111767937D01*
X96786333Y-111946879D01*
X96806000Y-112134000D01*
X96786333Y-112321121D01*
X96728191Y-112500063D01*
X96634115Y-112663007D01*
X96508218Y-112802830D01*
X96356000Y-112913423D01*
X96184115Y-112989951D01*
X96000076Y-113029070D01*
X95811924Y-113029070D01*
X95627885Y-112989951D01*
X95456000Y-112913423D01*
X95303782Y-112802830D01*
X95177885Y-112663007D01*
X95083809Y-112500063D01*
X95025667Y-112321121D01*
X95006000Y-112134000D01*
X95025667Y-111946879D01*
X95083809Y-111767937D01*
X95177885Y-111604993D01*
X95303782Y-111465170D01*
X95456000Y-111354577D01*
X95627885Y-111278049D01*
X95811924Y-111238930D01*
X96000076Y-111238930D01*
X96184115Y-111278049D01*
G37*
G36*
X102684115Y-111278049D02*
G01*
X102856000Y-111354577D01*
X103008218Y-111465170D01*
X103134115Y-111604993D01*
X103228191Y-111767937D01*
X103286333Y-111946879D01*
X103306000Y-112134000D01*
X103286333Y-112321121D01*
X103228191Y-112500063D01*
X103134115Y-112663007D01*
X103008218Y-112802830D01*
X102856000Y-112913423D01*
X102684115Y-112989951D01*
X102500076Y-113029070D01*
X102311924Y-113029070D01*
X102127885Y-112989951D01*
X101956000Y-112913423D01*
X101803782Y-112802830D01*
X101677885Y-112663007D01*
X101583809Y-112500063D01*
X101525667Y-112321121D01*
X101506000Y-112134000D01*
X101525667Y-111946879D01*
X101583809Y-111767937D01*
X101677885Y-111604993D01*
X101803782Y-111465170D01*
X101956000Y-111354577D01*
X102127885Y-111278049D01*
X102311924Y-111238930D01*
X102500076Y-111238930D01*
X102684115Y-111278049D01*
G37*
G36*
X113512708Y-104694184D02*
G01*
X113632430Y-104771125D01*
X113725627Y-104878680D01*
X113784746Y-105008134D01*
X113805000Y-105149000D01*
X113784746Y-105289866D01*
X113725627Y-105419320D01*
X113632430Y-105526875D01*
X113512708Y-105603816D01*
X113376157Y-105643911D01*
X113233843Y-105643911D01*
X113097292Y-105603816D01*
X112977570Y-105526875D01*
X112884373Y-105419320D01*
X112825254Y-105289866D01*
X112805000Y-105149000D01*
X112825254Y-105008134D01*
X112884373Y-104878680D01*
X112977570Y-104771125D01*
X113097292Y-104694184D01*
X113233843Y-104654089D01*
X113376157Y-104654089D01*
X113512708Y-104694184D01*
G37*
G36*
X113512708Y-103424184D02*
G01*
X113632430Y-103501125D01*
X113725627Y-103608680D01*
X113784746Y-103738134D01*
X113805000Y-103879000D01*
X113784746Y-104019866D01*
X113725627Y-104149320D01*
X113632430Y-104256875D01*
X113512708Y-104333816D01*
X113376157Y-104373911D01*
X113233843Y-104373911D01*
X113097292Y-104333816D01*
X112977570Y-104256875D01*
X112884373Y-104149320D01*
X112825254Y-104019866D01*
X112805000Y-103879000D01*
X112825254Y-103738134D01*
X112884373Y-103608680D01*
X112977570Y-103501125D01*
X113097292Y-103424184D01*
X113233843Y-103384089D01*
X113376157Y-103384089D01*
X113512708Y-103424184D01*
G37*
G36*
X113512708Y-102154184D02*
G01*
X113632430Y-102231125D01*
X113725627Y-102338680D01*
X113784746Y-102468134D01*
X113805000Y-102609000D01*
X113784746Y-102749866D01*
X113725627Y-102879320D01*
X113632430Y-102986875D01*
X113512708Y-103063816D01*
X113376157Y-103103911D01*
X113233843Y-103103911D01*
X113097292Y-103063816D01*
X112977570Y-102986875D01*
X112884373Y-102879320D01*
X112825254Y-102749866D01*
X112805000Y-102609000D01*
X112825254Y-102468134D01*
X112884373Y-102338680D01*
X112977570Y-102231125D01*
X113097292Y-102154184D01*
X113233843Y-102114089D01*
X113376157Y-102114089D01*
X113512708Y-102154184D01*
G37*
G36*
X113512708Y-100884184D02*
G01*
X113632430Y-100961125D01*
X113725627Y-101068680D01*
X113784746Y-101198134D01*
X113805000Y-101339000D01*
X113784746Y-101479866D01*
X113725627Y-101609320D01*
X113632430Y-101716875D01*
X113512708Y-101793816D01*
X113376157Y-101833911D01*
X113233843Y-101833911D01*
X113097292Y-101793816D01*
X112977570Y-101716875D01*
X112884373Y-101609320D01*
X112825254Y-101479866D01*
X112805000Y-101339000D01*
X112825254Y-101198134D01*
X112884373Y-101068680D01*
X112977570Y-100961125D01*
X113097292Y-100884184D01*
X113233843Y-100844089D01*
X113376157Y-100844089D01*
X113512708Y-100884184D01*
G37*
G36*
X113805000Y-100569000D02*
G01*
X112805000Y-100569000D01*
X112805000Y-99569000D01*
X113805000Y-99569000D01*
X113805000Y-100569000D01*
G37*
G36*
X97767937Y-75402666D02*
G01*
X97875687Y-75471913D01*
X97959564Y-75568712D01*
X98012772Y-75685220D01*
X98031000Y-75812000D01*
X98012772Y-75938780D01*
X97959564Y-76055288D01*
X97875687Y-76152087D01*
X97767937Y-76221334D01*
X97645042Y-76257420D01*
X97516958Y-76257420D01*
X97394063Y-76221334D01*
X97286313Y-76152087D01*
X97202436Y-76055288D01*
X97149228Y-75938780D01*
X97131000Y-75812000D01*
X97149228Y-75685220D01*
X97202436Y-75568712D01*
X97286313Y-75471913D01*
X97394063Y-75402666D01*
X97516958Y-75366580D01*
X97645042Y-75366580D01*
X97767937Y-75402666D01*
G37*
G36*
X100767937Y-75402666D02*
G01*
X100875687Y-75471913D01*
X100959564Y-75568712D01*
X101012772Y-75685220D01*
X101031000Y-75812000D01*
X101012772Y-75938780D01*
X100959564Y-76055288D01*
X100875687Y-76152087D01*
X100767937Y-76221334D01*
X100645042Y-76257420D01*
X100516958Y-76257420D01*
X100394063Y-76221334D01*
X100286313Y-76152087D01*
X100202436Y-76055288D01*
X100149228Y-75938780D01*
X100131000Y-75812000D01*
X100149228Y-75685220D01*
X100202436Y-75568712D01*
X100286313Y-75471913D01*
X100394063Y-75402666D01*
X100516958Y-75366580D01*
X100645042Y-75366580D01*
X100767937Y-75402666D01*
G37*
M02*
