G04 #@! TF.GenerationSoftware,KiCad,Pcbnew,8.0.2*
G04 #@! TF.CreationDate,2024-10-23T21:54:28-05:00*
G04 #@! TF.ProjectId,SAMC21_breakout,53414d43-3231-45f6-9272-65616b6f7574,rev?*
G04 #@! TF.SameCoordinates,Original*
G04 #@! TF.FileFunction,Paste,Top*
G04 #@! TF.FilePolarity,Positive*
%FSLAX46Y46*%
G04 Gerber Fmt 4.6, Leading zero omitted, Abs format (unit mm)*
G04 Created by KiCad (PCBNEW 8.0.2) date 2024-10-23 21:54:28*
%MOMM*%
%LPD*%
G01*
G04 APERTURE LIST*
G04 Aperture macros list*
%AMRoundRect*
0 Rectangle with rounded corners*
0 $1 Rounding radius*
0 $2 $3 $4 $5 $6 $7 $8 $9 X,Y pos of 4 corners*
0 Add a 4 corners polygon primitive as box body*
4,1,4,$2,$3,$4,$5,$6,$7,$8,$9,$2,$3,0*
0 Add four circle primitives for the rounded corners*
1,1,$1+$1,$2,$3*
1,1,$1+$1,$4,$5*
1,1,$1+$1,$6,$7*
1,1,$1+$1,$8,$9*
0 Add four rect primitives between the rounded corners*
20,1,$1+$1,$2,$3,$4,$5,0*
20,1,$1+$1,$4,$5,$6,$7,0*
20,1,$1+$1,$6,$7,$8,$9,0*
20,1,$1+$1,$8,$9,$2,$3,0*%
G04 Aperture macros list end*
%ADD10RoundRect,0.196875X0.196875X0.230625X-0.196875X0.230625X-0.196875X-0.230625X0.196875X-0.230625X0*%
%ADD11RoundRect,0.196875X-0.196875X-0.230625X0.196875X-0.230625X0.196875X0.230625X-0.196875X0.230625X0*%
%ADD12RoundRect,0.196875X0.230625X-0.196875X0.230625X0.196875X-0.230625X0.196875X-0.230625X-0.196875X0*%
%ADD13O,0.225000X0.630000*%
%ADD14O,0.630000X0.225000*%
%ADD15R,1.890000X1.890000*%
%ADD16R,0.630000X1.350000*%
%ADD17R,0.900000X0.720000*%
G04 APERTURE END LIST*
D10*
X99487500Y-98418000D03*
X97912500Y-98418000D03*
D11*
X85339500Y-83813000D03*
X86914500Y-83813000D03*
X85339500Y-88893000D03*
X86914500Y-88893000D03*
D12*
X92858000Y-84600500D03*
X92858000Y-83025500D03*
D13*
X99950000Y-101879000D03*
X99450000Y-101879000D03*
X98950000Y-101879000D03*
X98450000Y-101879000D03*
X97950000Y-101879000D03*
X97450000Y-101879000D03*
D14*
X96700000Y-102629000D03*
X96700000Y-103129000D03*
X96700000Y-103629000D03*
X96700000Y-104129000D03*
X96700000Y-104629000D03*
X96700000Y-105129000D03*
D13*
X97450000Y-105879000D03*
X97950000Y-105879000D03*
X98450000Y-105879000D03*
X98950000Y-105879000D03*
X99450000Y-105879000D03*
X99950000Y-105879000D03*
D14*
X100700000Y-105129000D03*
X100700000Y-104629000D03*
X100700000Y-104129000D03*
X100700000Y-103629000D03*
X100700000Y-103129000D03*
X100700000Y-102629000D03*
D15*
X98700000Y-103879000D03*
D12*
X113178000Y-94760500D03*
X113178000Y-93185500D03*
X97938000Y-89680500D03*
X97938000Y-88105500D03*
D10*
X99487500Y-99942000D03*
X97912500Y-99942000D03*
D16*
X101331000Y-77562000D03*
X98331000Y-77562000D03*
X96831000Y-77562000D03*
D17*
X102781000Y-76712000D03*
X102781000Y-74912000D03*
X95381000Y-76712000D03*
X95381000Y-74912000D03*
D11*
X85339500Y-93973000D03*
X86914500Y-93973000D03*
D12*
X88413000Y-84600500D03*
X88413000Y-83025500D03*
X88413000Y-89680500D03*
X88413000Y-88105500D03*
X88413000Y-94760500D03*
X88413000Y-93185500D03*
X90318000Y-84600500D03*
X90318000Y-83025500D03*
X90318000Y-89680500D03*
X90318000Y-88105500D03*
X90318000Y-94760500D03*
X90318000Y-93185500D03*
X95398000Y-84600500D03*
X95398000Y-83025500D03*
X95398000Y-89680500D03*
X95398000Y-88105500D03*
X95398000Y-94760500D03*
X95398000Y-93185500D03*
X100478000Y-84600500D03*
X100478000Y-83025500D03*
X100478000Y-89680500D03*
X100478000Y-88105500D03*
X100478000Y-94760500D03*
X100478000Y-93185500D03*
X105558000Y-84600500D03*
X105558000Y-83025500D03*
X105558000Y-89680500D03*
X105558000Y-88105500D03*
X105558000Y-94760500D03*
X105558000Y-93185500D03*
X110638000Y-84600500D03*
X110638000Y-83025500D03*
X110638000Y-89680500D03*
X110638000Y-88105500D03*
X110638000Y-94760500D03*
X110638000Y-93185500D03*
X92858000Y-89680500D03*
X92858000Y-88105500D03*
X92858000Y-94760500D03*
X92858000Y-93185500D03*
X97938000Y-84600500D03*
X97938000Y-83025500D03*
X97938000Y-94760500D03*
X97938000Y-93185500D03*
X103018000Y-84600500D03*
X103018000Y-83025500D03*
X103018000Y-89680500D03*
X103018000Y-88105500D03*
X103018000Y-94760500D03*
X103018000Y-93185500D03*
X108098000Y-84600500D03*
X108098000Y-83025500D03*
X108098000Y-89680500D03*
X108098000Y-88105500D03*
X108098000Y-94760500D03*
X108098000Y-93185500D03*
X113178000Y-84600500D03*
X113178000Y-83025500D03*
X113178000Y-89680500D03*
X113178000Y-88105500D03*
D11*
X101722500Y-109086000D03*
X103297500Y-109086000D03*
M02*
